999
DXF data, created by potrace 1.13, written by Peter Selinger 2001-2015
  0
SECTION
  2
HEADER
  9
$ACADVER
  1
AC1006
  9
$EXTMIN
 10
0.000000
 20
0.000000
 30
0.000000
  9
$EXTMAX
 10
577.000000
 20
436.000000
 30
0.000000
  0
ENDSEC
  0
SECTION
  2
ENTITIES
  0
POLYLINE
  8
0
 66
1
 70
1
  0
VERTEX
  8
0
 10
221.750000
 20
435.250011
 42
0.000000
  0
VERTEX
  8
0
 10
1.000000
 20
434.995546
 42
0.000000
  0
VERTEX
  8
0
 10
1.000000
 20
217.997773
 42
0.000000
  0
VERTEX
  8
0
 10
1.000000
 20
1.000000
 42
0.000000
  0
VERTEX
  8
0
 10
288.000000
 20
1.000000
 42
0.000000
  0
VERTEX
  8
0
 10
575.000000
 20
1.000000
 42
0.000000
  0
VERTEX
  8
0
 10
575.000000
 20
217.837967
 42
0.000000
  0
VERTEX
  8
0
 10
575.000000
 20
434.675935
 42
0.000000
  0
VERTEX
  8
0
 10
539.750000
 20
435.336430
 42
0.001897
  0
VERTEX
  8
0
 10
523.998786
 20
435.571790
 42
0.001224
  0
VERTEX
  8
0
 10
505.748437
 20
435.730576
 42
0.001230
  0
VERTEX
  8
0
 10
487.901145
 20
435.798283
 42
0.002319
  0
VERTEX
  8
0
 10
473.500000
 20
435.750701
 42
-0.001410
  0
VERTEX
  8
0
 10
452.472625
 20
435.643002
 42
-0.000078
  0
VERTEX
  8
0
 10
386.760938
 20
435.502056
 42
-0.000121
  0
VERTEX
  8
0
 10
308.567086
 20
435.365421
 42
-0.000088
  0
SEQEND
  0
POLYLINE
  8
0
 66
1
 70
1
  0
VERTEX
  8
0
 10
426.417908
 20
430.579732
 42
-0.021800
  0
VERTEX
  8
0
 10
424.876825
 20
429.987202
 42
-0.008714
  0
VERTEX
  8
0
 10
422.720081
 20
429.305738
 42
-0.008604
  0
VERTEX
  8
0
 10
420.365963
 20
428.650654
 42
-0.010734
  0
VERTEX
  8
0
 10
418.157607
 20
428.127221
 42
0.029070
  0
VERTEX
  8
0
 10
412.507146
 20
426.567148
 42
0.021791
  0
VERTEX
  8
0
 10
406.490378
 20
424.225957
 42
0.022031
  0
VERTEX
  8
0
 10
400.806679
 20
421.419081
 42
0.033609
  0
VERTEX
  8
0
 10
396.176520
 20
418.451555
 42
-0.005419
  0
VERTEX
  8
0
 10
393.893443
 20
416.799779
 42
-0.002339
  0
VERTEX
  8
0
 10
390.817478
 20
414.646260
 42
-0.002314
  0
VERTEX
  8
0
 10
387.522238
 20
412.384617
 42
-0.003063
  0
VERTEX
  8
0
 10
384.500000
 20
410.357803
 42
0.005238
  0
VERTEX
  8
0
 10
381.772047
 20
408.511092
 42
0.007261
  0
VERTEX
  8
0
 10
379.368780
 20
406.795047
 42
0.004763
  0
VERTEX
  8
0
 10
377.394251
 20
405.312182
 42
0.086434
  0
VERTEX
  8
0
 10
376.861803
 20
404.734523
 42
-0.124667
  0
VERTEX
  8
0
 10
376.521052
 20
404.416769
 42
-0.098714
  0
VERTEX
  8
0
 10
376.039098
 20
404.264699
 42
-0.088598
  0
VERTEX
  8
0
 10
375.489167
 20
404.302088
 42
-0.077393
  0
VERTEX
  8
0
 10
374.957295
 20
404.526393
 42
0.025271
  0
VERTEX
  8
0
 10
374.477108
 20
404.790621
 42
0.179637
  0
VERTEX
  8
0
 10
374.217120
 20
404.815927
 42
0.423902
  0
VERTEX
  8
0
 10
374.137993
 20
404.674619
 42
0.065633
  0
VERTEX
  8
0
 10
374.284584
 20
404.348551
 42
-0.404835
  0
VERTEX
  8
0
 10
374.163107
 20
403.794301
 42
-0.009582
  0
VERTEX
  8
0
 10
371.710768
 20
402.234389
 42
-0.015696
  0
VERTEX
  8
0
 10
368.553497
 20
400.443456
 42
-0.009325
  0
VERTEX
  8
0
 10
364.689092
 20
398.500143
 42
0.007094
  0
VERTEX
  8
0
 10
360.384925
 20
396.359700
 42
0.005935
  0
VERTEX
  8
0
 10
355.877421
 20
393.969690
 42
0.005995
  0
VERTEX
  8
0
 10
351.807897
 20
391.685903
 42
0.016291
  0
VERTEX
  8
0
 10
349.000000
 20
389.941241
 42
-0.009239
  0
VERTEX
  8
0
 10
346.236019
 20
388.169363
 42
-0.003528
  0
VERTEX
  8
0
 10
342.325000
 20
385.800826
 42
-0.003492
  0
VERTEX
  8
0
 10
338.040215
 20
383.287462
 42
-0.004277
  0
VERTEX
  8
0
 10
334.000000
 20
381.001177
 42
0.005053
  0
VERTEX
  8
0
 10
329.780580
 20
378.604834
 42
0.003263
  0
VERTEX
  8
0
 10
324.940625
 20
375.748586
 42
0.003279
  0
VERTEX
  8
0
 10
320.245121
 20
372.894106
 42
0.006182
  0
VERTEX
  8
0
 10
316.500000
 20
370.519182
 42
-0.026284
  0
VERTEX
  8
0
 10
301.723139
 20
361.961094
 42
-0.013777
  0
VERTEX
  8
0
 10
282.538558
 20
352.815628
 42
-0.013047
  0
VERTEX
  8
0
 10
263.773812
 20
345.076027
 42
-0.047846
  0
VERTEX
  8
0
 10
251.397685
 20
341.657685
 42
0.002805
  0
VERTEX
  8
0
 10
249.921675
 20
341.389894
 42
0.000941
  0
VERTEX
  8
0
 10
247.768914
 20
340.982642
 42
0.000936
  0
VERTEX
  8
0
 10
245.388246
 20
340.523015
 42
0.001070
  0
VERTEX
  8
0
 10
243.113510
 20
340.074366
 42
-0.001403
  0
VERTEX
  8
0
 10
241.018753
 20
339.662662
 42
-0.002095
  0
VERTEX
  8
0
 10
239.185185
 20
339.315595
 42
-0.000875
  0
VERTEX
  8
0
 10
237.613848
 20
339.027821
 42
-0.044876
  0
VERTEX
  8
0
 10
237.304493
 20
339.000000
 42
0.248950
  0
VERTEX
  8
0
 10
237.183591
 20
338.935825
 42
0.160264
  0
VERTEX
  8
0
 10
237.139198
 20
338.779688
 42
0.085858
  0
VERTEX
  8
0
 10
237.191288
 20
338.537805
 42
0.040046
  0
VERTEX
  8
0
 10
237.335123
 20
338.250000
 42
-0.535962
  0
VERTEX
  8
0
 10
237.189221
 20
337.940481
 42
-0.007938
  0
VERTEX
  8
0
 10
234.822199
 20
337.630004
 42
-0.013233
  0
VERTEX
  8
0
 10
231.811301
 20
337.364106
 42
-0.007438
  0
VERTEX
  8
0
 10
228.144140
 20
337.192566
 42
0.008960
  0
VERTEX
  8
0
 10
223.763884
 20
336.974312
 42
0.005289
  0
VERTEX
  8
0
 10
218.542341
 20
336.564725
 42
0.005290
  0
VERTEX
  8
0
 10
213.335058
 20
336.045209
 42
0.009028
  0
VERTEX
  8
0
 10
209.000000
 20
335.486950
 42
0.007745
  0
VERTEX
  8
0
 10
203.503768
 20
334.590846
 42
0.043011
  0
VERTEX
  8
0
 10
200.617686
 20
333.813572
 42
0.072554
  0
VERTEX
  8
0
 10
198.636741
 20
332.747019
 42
0.050036
  0
VERTEX
  8
0
 10
196.750000
 20
331.028607
 42
0.102338
  0
VERTEX
  8
0
 10
194.491915
 20
327.157844
 42
0.090465
  0
VERTEX
  8
0
 10
193.822371
 20
322.530529
 42
0.076835
  0
VERTEX
  8
0
 10
194.824254
 20
317.324198
 42
0.049828
  0
VERTEX
  8
0
 10
197.457778
 20
311.774278
 42
0.000000
  0
VERTEX
  8
0
 10
200.910415
 20
306.048555
 42
0.000000
  0
VERTEX
  8
0
 10
190.432250
 20
299.819028
 42
0.013307
  0
VERTEX
  8
0
 10
185.083791
 20
296.443452
 42
0.018498
  0
VERTEX
  8
0
 10
180.495858
 20
293.122161
 42
0.018842
  0
VERTEX
  8
0
 10
176.231113
 20
289.520743
 42
0.014640
  0
VERTEX
  8
0
 10
171.863401
 20
285.300508
 42
-0.010898
  0
VERTEX
  8
0
 10
165.958690
 20
279.509134
 42
-0.110967
  0
VERTEX
  8
0
 10
163.020924
 20
277.776449
 42
-0.139357
  0
VERTEX
  8
0
 10
159.887857
 20
277.666984
 42
-0.020525
  0
VERTEX
  8
0
 10
153.735321
 20
279.456499
 42
0.014059
  0
VERTEX
  8
0
 10
151.822961
 20
280.039640
 42
0.008958
  0
VERTEX
  8
0
 10
149.569126
 20
280.615003
 42
0.008999
  0
VERTEX
  8
0
 10
147.336631
 20
281.100256
 42
0.016503
  0
VERTEX
  8
0
 10
145.500000
 20
281.402364
 42
-0.006298
  0
VERTEX
  8
0
 10
129.224463
 20
283.739521
 42
-0.015794
  0
VERTEX
  8
0
 10
117.439815
 20
285.966933
 42
-0.021466
  0
VERTEX
  8
0
 10
108.593433
 20
288.332738
 42
-0.041622
  0
VERTEX
  8
0
 10
101.822355
 20
291.095769
 42
0.039975
  0
VERTEX
  8
0
 10
95.853191
 20
293.554496
 42
0.016098
  0
VERTEX
  8
0
 10
87.368701
 20
295.981630
 42
0.015575
  0
VERTEX
  8
0
 10
77.856990
 20
298.061595
 42
0.017008
  0
VERTEX
  8
0
 10
68.508774
 20
299.475634
 42
0.018095
  0
VERTEX
  8
0
 10
58.259073
 20
300.296601
 42
0.035619
  0
VERTEX
  8
0
 10
50.092037
 20
300.072215
 42
0.037764
  0
VERTEX
  8
0
 10
42.355237
 20
298.710915
 42
0.023203
  0
VERTEX
  8
0
 10
33.500000
 20
296.009865
 42
0.022512
  0
VERTEX
  8
0
 10
32.245533
 20
295.497914
 42
0.002047
  0
VERTEX
  8
0
 10
29.183807
 20
294.069272
 42
0.002650
  0
VERTEX
  8
0
 10
25.546768
 20
292.330389
 42
0.002070
  0
VERTEX
  8
0
 10
21.615087
 20
290.404828
 42
0.018894
  0
VERTEX
  8
0
 10
15.004047
 20
286.815982
 42
0.051228
  0
VERTEX
  8
0
 10
10.723064
 20
283.645251
 42
0.061112
  0
VERTEX
  8
0
 10
7.613980
 20
280.019732
 42
0.037268
  0
VERTEX
  8
0
 10
4.845637
 20
275.097101
 42
-0.768408
  0
VERTEX
  8
0
 10
3.837954
 20
275.277711
 42
-0.015019
  0
VERTEX
  8
0
 10
3.393942
 20
283.639092
 42
-0.005148
  0
VERTEX
  8
0
 10
3.167383
 20
301.445474
 42
-0.000355
  0
VERTEX
  8
0
 10
3.080948
 20
351.750000
 42
0.000000
  0
VERTEX
  8
0
 10
3.000000
 20
432.000000
 42
0.000000
  0
VERTEX
  8
0
 10
216.250000
 20
431.960858
 42
-0.000195
  0
VERTEX
  8
0
 10
333.098478
 20
431.893732
 42
-0.001402
  0
VERTEX
  8
0
 10
389.537515
 20
431.681046
 42
-0.000605
  0
VERTEX
  8
0
 10
426.251871
 20
431.395331
 42
-0.809465
  0
SEQEND
  0
POLYLINE
  8
0
 66
1
 70
1
  0
VERTEX
  8
0
 10
521.434396
 20
430.311775
 42
-0.024307
  0
VERTEX
  8
0
 10
527.615316
 20
428.263057
 42
-0.034343
  0
VERTEX
  8
0
 10
532.867811
 20
425.807417
 42
-0.039423
  0
VERTEX
  8
0
 10
536.820163
 20
423.190807
 42
-0.116417
  0
VERTEX
  8
0
 10
538.843102
 20
420.665595
 42
-0.029831
  0
VERTEX
  8
0
 10
539.530537
 20
418.964151
 42
-0.127925
  0
VERTEX
  8
0
 10
539.606235
 20
417.882392
 42
-0.118354
  0
VERTEX
  8
0
 10
539.147525
 20
416.855813
 42
-0.023874
  0
VERTEX
  8
0
 10
537.845020
 20
415.320581
 42
-0.072402
  0
VERTEX
  8
0
 10
534.252491
 20
412.445406
 42
-0.031084
  0
VERTEX
  8
0
 10
528.758096
 20
409.666611
 42
-0.023018
  0
VERTEX
  8
0
 10
521.098102
 20
406.782827
 42
-0.009519
  0
VERTEX
  8
0
 10
510.500000
 20
403.562474
 42
0.037860
  0
VERTEX
  8
0
 10
495.886602
 20
398.200969
 42
0.008708
  0
VERTEX
  8
0
 10
472.161477
 20
386.893962
 42
0.009436
  0
VERTEX
  8
0
 10
448.158451
 20
374.366415
 42
0.022628
  0
VERTEX
  8
0
 10
431.000000
 20
363.960753
 42
-0.016754
  0
VERTEX
  8
0
 10
425.451909
 20
360.506388
 42
-0.003850
  0
VERTEX
  8
0
 10
415.854591
 20
355.066223
 42
-0.003748
  0
VERTEX
  8
0
 10
404.114423
 20
348.645146
 42
-0.002749
  0
VERTEX
  8
0
 10
391.000000
 20
341.692292
 42
0.010538
  0
VERTEX
  8
0
 10
377.713429
 20
334.380807
 42
0.008917
  0
VERTEX
  8
0
 10
363.976293
 20
326.109442
 42
0.009174
  0
VERTEX
  8
0
 10
351.211116
 20
317.779725
 42
0.015855
  0
VERTEX
  8
0
 10
340.955930
 20
310.330595
 42
-0.027115
  0
VERTEX
  8
0
 10
337.803325
 20
308.147288
 42
-0.006319
  0
VERTEX
  8
0
 10
332.276877
 20
304.843224
 42
-0.006500
  0
VERTEX
  8
0
 10
325.810464
 20
301.198878
 42
-0.006333
  0
VERTEX
  8
0
 10
319.195507
 20
297.691362
 42
0.005057
  0
VERTEX
  8
0
 10
313.028778
 20
294.441645
 42
0.008644
  0
VERTEX
  8
0
 10
307.957128
 20
291.588807
 42
0.003131
  0
VERTEX
  8
0
 10
303.767274
 20
289.100330
 42
0.487376
  0
VERTEX
  8
0
 10
303.709096
 20
288.624237
 42
-0.139300
  0
VERTEX
  8
0
 10
303.828521
 20
288.410020
 42
-0.448559
  0
VERTEX
  8
0
 10
303.746022
 20
288.292370
 42
-0.100193
  0
VERTEX
  8
0
 10
303.396951
 20
288.321684
 42
-0.020730
  0
VERTEX
  8
0
 10
302.809776
 20
288.519501
 42
0.105773
  0
VERTEX
  8
0
 10
301.971847
 20
288.650984
 42
0.036891
  0
VERTEX
  8
0
 10
300.754425
 20
288.493222
 42
0.034671
  0
VERTEX
  8
0
 10
299.399494
 20
288.115414
 42
0.034014
  0
VERTEX
  8
0
 10
298.100735
 20
287.552092
 42
-0.006406
  0
VERTEX
  8
0
 10
296.884142
 20
286.942593
 42
-0.008873
  0
VERTEX
  8
0
 10
295.777041
 20
286.429643
 42
-0.006000
  0
VERTEX
  8
0
 10
294.841776
 20
286.029650
 42
-0.102318
  0
VERTEX
  8
0
 10
294.515084
 20
285.967426
 42
0.099597
  0
VERTEX
  8
0
 10
292.337888
 20
285.564888
 42
0.010535
  0
VERTEX
  8
0
 10
287.562054
 20
283.532001
 42
0.008789
  0
VERTEX
  8
0
 10
282.811119
 20
281.289104
 42
0.140696
  0
VERTEX
  8
0
 10
281.509403
 20
280.104783
 42
0.058648
  0
VERTEX
  8
0
 10
280.687559
 20
278.340183
 42
0.086113
  0
VERTEX
  8
0
 10
280.437601
 20
276.650919
 42
0.134515
  0
VERTEX
  8
0
 10
280.794113
 20
275.466278
 42
0.258286
  0
VERTEX
  8
0
 10
281.636536
 20
275.000000
 42
0.084231
  0
VERTEX
  8
0
 10
282.157227
 20
275.088343
 42
0.093179
  0
VERTEX
  8
0
 10
282.599482
 20
275.342708
 42
0.100490
  0
VERTEX
  8
0
 10
282.895238
 20
275.721655
 42
0.116120
  0
VERTEX
  8
0
 10
283.000000
 20
276.166667
 42
-0.048203
  0
VERTEX
  8
0
 10
283.039528
 20
276.575735
 42
-0.143848
  0
VERTEX
  8
0
 10
283.167710
 20
276.822915
 42
-0.260521
  0
VERTEX
  8
0
 10
283.354864
 20
276.880184
 42
-0.144146
  0
VERTEX
  8
0
 10
283.570928
 20
276.762406
 42
0.295660
  0
VERTEX
  8
0
 10
285.238130
 20
276.406257
 42
0.003584
  0
VERTEX
  8
0
 10
296.016645
 20
280.607343
 42
0.006153
  0
VERTEX
  8
0
 10
306.298282
 20
284.847193
 42
0.121917
  0
VERTEX
  8
0
 10
309.000000
 20
286.884334
 42
-0.083557
  0
VERTEX
  8
0
 10
309.294301
 20
287.143487
 42
-0.028872
  0
VERTEX
  8
0
 10
309.793750
 20
287.414732
 42
-0.027744
  0
VERTEX
  8
0
 10
310.389087
 20
287.655504
 42
-0.028816
  0
VERTEX
  8
0
 10
311.000000
 20
287.825390
 42
0.068898
  0
VERTEX
  8
0
 10
316.276426
 20
289.758587
 42
0.005989
  0
VERTEX
  8
0
 10
328.847096
 20
296.638232
 42
0.008590
  0
VERTEX
  8
0
 10
341.508418
 20
304.055122
 42
0.020932
  0
VERTEX
  8
0
 10
350.500000
 20
310.061720
 42
-0.014493
  0
VERTEX
  8
0
 10
357.868158
 20
315.122219
 42
-0.004093
  0
VERTEX
  8
0
 10
369.634613
 20
322.575591
 42
-0.001879
  0
VERTEX
  8
0
 10
381.910626
 20
330.147803
 42
-0.065327
  0
VERTEX
  8
0
 10
385.000000
 20
331.521785
 42
0.027041
  0
VERTEX
  8
0
 10
386.137238
 20
331.926726
 42
0.014358
  0
VERTEX
  8
0
 10
387.500000
 20
332.543259
 42
0.014251
  0
VERTEX
  8
0
 10
388.860740
 20
333.255267
 42
0.021432
  0
VERTEX
  8
0
 10
390.000000
 20
333.959143
 42
-0.018292
  0
VERTEX
  8
0
 10
391.684608
 20
335.014619
 42
-0.001315
  0
VERTEX
  8
0
 10
396.465625
 20
337.755201
 42
-0.001844
  0
VERTEX
  8
0
 10
402.189500
 20
340.988379
 42
-0.001393
  0
VERTEX
  8
0
 10
408.500000
 20
344.499223
 42
0.001185
  0
VERTEX
  8
0
 10
415.065626
 20
348.148430
 42
0.001213
  0
VERTEX
  8
0
 10
421.562500
 20
351.800307
 42
0.001174
  0
VERTEX
  8
0
 10
427.187233
 20
354.997385
 42
0.005093
  0
VERTEX
  8
0
 10
430.500000
 20
356.935686
 42
-0.003351
  0
VERTEX
  8
0
 10
433.017169
 20
358.420280
 42
-0.003104
  0
VERTEX
  8
0
 10
435.618750
 20
359.909729
 42
-0.003096
  0
VERTEX
  8
0
 10
437.950529
 20
361.206586
 42
-0.010394
  0
VERTEX
  8
0
 10
439.500000
 20
362.014410
 42
0.018482
  0
VERTEX
  8
0
 10
440.794726
 20
362.716281
 42
0.012810
  0
VERTEX
  8
0
 10
442.206250
 20
363.599930
 42
0.012938
  0
VERTEX
  8
0
 10
443.520049
 20
364.519791
 42
0.025803
  0
VERTEX
  8
0
 10
444.500000
 20
365.325778
 42
-0.068396
  0
VERTEX
  8
0
 10
447.770353
 20
367.579083
 42
-0.001209
  0
VERTEX
  8
0
 10
466.948863
 20
377.184349
 42
-0.002828
  0
VERTEX
  8
0
 10
485.065892
 20
386.075776
 42
-0.019421
  0
VERTEX
  8
0
 10
494.161165
 20
390.047812
 42
0.008499
  0
VERTEX
  8
0
 10
496.375902
 20
390.957961
 42
0.007878
  0
VERTEX
  8
0
 10
498.615585
 20
391.965305
 42
0.007887
  0
VERTEX
  8
0
 10
500.579971
 20
392.924390
 42
0.026058
  0
VERTEX
  8
0
 10
501.828063
 20
393.642437
 42
-0.053544
  0
VERTEX
  8
0
 10
503.379027
 20
394.424797
 42
-0.005322
  0
VERTEX
  8
0
 10
507.296577
 20
395.852856
 42
-0.006655
  0
VERTEX
  8
0
 10
512.019303
 20
397.447347
 42
-0.005238
  0
VERTEX
  8
0
 10
517.175089
 20
399.052505
 42
0.009262
  0
VERTEX
  8
0
 10
528.201183
 20
402.582866
 42
0.038087
  0
VERTEX
  8
0
 10
534.644089
 20
405.341343
 42
0.058655
  0
VERTEX
  8
0
 10
539.106570
 20
408.380172
 42
0.049706
  0
VERTEX
  8
0
 10
543.024633
 20
412.531929
 42
0.019227
  0
VERTEX
  8
0
 10
545.531368
 20
416.053127
 42
0.068152
  0
VERTEX
  8
0
 10
546.720087
 20
418.551332
 42
0.134850
  0
VERTEX
  8
0
 10
546.790763
 20
420.319542
 42
0.199871
  0
VERTEX
  8
0
 10
545.897966
 20
421.563060
 42
-0.093076
  0
VERTEX
  8
0
 10
545.386750
 20
422.029089
 42
-0.021516
  0
VERTEX
  8
0
 10
544.723279
 20
422.992743
 42
-0.021492
  0
VERTEX
  8
0
 10
544.044091
 20
424.187375
 42
-0.019554
  0
VERTEX
  8
0
 10
543.446569
 20
425.473635
 42
0.053196
  0
VERTEX
  8
0
 10
542.676610
 20
426.876123
 42
0.038828
  0
VERTEX
  8
0
 10
541.549756
 20
428.252681
 42
0.038486
  0
VERTEX
  8
0
 10
540.209168
 20
429.453029
 42
0.048896
  0
VERTEX
  8
0
 10
538.798603
 20
430.328788
 42
-0.210197
  0
VERTEX
  8
0
 10
538.114557
 20
431.143334
 42
-0.466256
  0
VERTEX
  8
0
 10
538.506554
 20
431.730816
 42
-0.025916
  0
VERTEX
  8
0
 10
542.000468
 20
431.933655
 42
-0.001230
  0
VERTEX
  8
0
 10
553.750000
 20
431.977230
 42
0.000000
  0
VERTEX
  8
0
 10
572.000000
 20
432.000000
 42
0.000000
  0
VERTEX
  8
0
 10
572.077132
 20
429.250000
 42
-0.007018
  0
VERTEX
  8
0
 10
572.454923
 20
402.275904
 42
-0.000159
  0
VERTEX
  8
0
 10
572.409974
 20
273.267670
 42
-0.000014
  0
VERTEX
  8
0
 10
572.313168
 20
133.754106
 42
-0.086939
  0
VERTEX
  8
0
 10
571.878809
 20
131.285402
 42
0.036657
  0
VERTEX
  8
0
 10
571.630064
 20
130.401504
 42
0.049685
  0
VERTEX
  8
0
 10
571.545865
 20
129.576880
 42
0.059851
  0
VERTEX
  8
0
 10
571.622752
 20
128.923274
 42
0.197657
  0
VERTEX
  8
0
 10
571.872142
 20
128.579021
 42
-0.259282
  0
VERTEX
  8
0
 10
572.312787
 20
127.790940
 42
-0.000048
  0
VERTEX
  8
0
 10
572.426259
 20
79.361717
 42
-0.000344
  0
VERTEX
  8
0
 10
572.497528
 20
33.622557
 42
-0.028692
  0
VERTEX
  8
0
 10
572.101195
 20
26.615141
 42
-0.488634
  0
VERTEX
  8
0
 10
571.896556
 20
26.490266
 42
-0.078951
  0
VERTEX
  8
0
 10
571.424351
 20
26.759819
 42
-0.039315
  0
VERTEX
  8
0
 10
570.738079
 20
27.405413
 42
-0.017708
  0
VERTEX
  8
0
 10
569.939149
 20
28.350230
 42
0.075934
  0
VERTEX
  8
0
 10
567.250894
 20
30.868206
 42
0.017921
  0
VERTEX
  8
0
 10
562.040964
 20
34.173073
 42
0.018850
  0
VERTEX
  8
0
 10
556.520406
 20
37.130112
 42
0.056765
  0
VERTEX
  8
0
 10
552.500000
 20
38.555206
 42
-0.014583
  0
VERTEX
  8
0
 10
543.228531
 20
40.985940
 42
-0.014918
  0
VERTEX
  8
0
 10
534.185184
 20
43.936725
 42
-0.013098
  0
VERTEX
  8
0
 10
524.362566
 20
47.762715
 42
-0.007406
  0
VERTEX
  8
0
 10
512.656783
 20
52.884335
 42
0.008418
  0
VERTEX
  8
0
 10
509.914801
 20
54.077425
 42
0.010600
  0
VERTEX
  8
0
 10
507.335825
 20
55.084773
 42
0.008879
  0
VERTEX
  8
0
 10
505.153168
 20
55.840740
 42
0.079080
  0
VERTEX
  8
0
 10
504.152507
 20
56.000000
 42
-0.088782
  0
VERTEX
  8
0
 10
503.116022
 20
56.185504
 42
-0.007380
  0
VERTEX
  8
0
 10
500.556970
 20
57.175000
 42
-0.009667
  0
VERTEX
  8
0
 10
497.524547
 20
58.468013
 42
-0.007308
  0
VERTEX
  8
0
 10
494.244930
 20
60.000000
 42
0.002100
  0
VERTEX
  8
0
 10
491.050015
 20
61.533164
 42
0.003269
  0
VERTEX
  8
0
 10
488.282195
 20
62.825000
 42
0.000973
  0
VERTEX
  8
0
 10
485.871544
 20
63.925323
 42
0.106968
  0
VERTEX
  8
0
 10
485.526476
 20
64.000000
 42
-0.109361
  0
VERTEX
  8
0
 10
484.728092
 20
64.176738
 42
-0.000123
  0
VERTEX
  8
0
 10
469.010967
 20
71.498627
 42
-0.001335
  0
VERTEX
  8
0
 10
453.811546
 20
78.633373
 42
-0.001933
  0
VERTEX
  8
0
 10
440.426191
 20
85.023693
 42
-0.007789
  0
VERTEX
  8
0
 10
435.314727
 20
87.587159
 42
-0.006410
  0
VERTEX
  8
0
 10
429.939674
 20
90.476652
 42
-0.006481
  0
VERTEX
  8
0
 10
425.071413
 20
93.257799
 42
-0.017086
  0
VERTEX
  8
0
 10
421.682120
 20
95.411938
 42
0.015311
  0
VERTEX
  8
0
 10
418.864039
 20
97.217102
 42
0.021520
  0
VERTEX
  8
0
 10
416.238090
 20
98.638261
 42
0.022148
  0
VERTEX
  8
0
 10
414.020511
 20
99.598761
 42
0.112223
  0
VERTEX
  8
0
 10
412.694960
 20
99.786826
 42
-0.111072
  0
VERTEX
  8
0
 10
411.374861
 20
99.971056
 42
-0.019480
  0
VERTEX
  8
0
 10
409.048877
 20
100.951325
 42
-0.019860
  0
VERTEX
  8
0
 10
406.315903
 20
102.365545
 42
-0.015143
  0
VERTEX
  8
0
 10
403.439031
 20
104.119573
 42
0.001596
  0
VERTEX
  8
0
 10
400.380858
 20
106.099730
 42
0.001117
  0
VERTEX
  8
0
 10
396.922715
 20
108.312325
 42
0.001127
  0
VERTEX
  8
0
 10
393.599926
 20
110.417359
 42
0.002350
  0
VERTEX
  8
0
 10
391.000000
 20
112.039221
 42
-0.002742
  0
VERTEX
  8
0
 10
388.856504
 20
113.378692
 42
-0.003908
  0
VERTEX
  8
0
 10
386.968750
 20
114.593559
 42
-0.002197
  0
VERTEX
  8
0
 10
385.388831
 20
115.637814
 42
-0.057245
  0
VERTEX
  8
0
 10
385.000000
 20
115.967185
 42
0.081265
  0
VERTEX
  8
0
 10
382.196347
 20
118.120676
 42
0.007272
  0
VERTEX
  8
0
 10
374.288520
 20
122.220176
 42
0.009828
  0
VERTEX
  8
0
 10
365.077421
 20
126.602440
 42
0.009816
  0
VERTEX
  8
0
 10
355.697670
 20
130.621095
 42
-0.002922
  0
VERTEX
  8
0
 10
351.117309
 20
132.509185
 42
-0.003029
  0
VERTEX
  8
0
 10
346.614316
 20
134.428394
 42
-0.002920
  0
VERTEX
  8
0
 10
342.736884
 20
136.135774
 42
-0.013093
  0
VERTEX
  8
0
 10
340.500000
 20
137.207533
 42
0.018652
  0
VERTEX
  8
0
 10
335.051066
 20
139.744193
 42
0.018445
  0
VERTEX
  8
0
 10
329.408070
 20
141.877966
 42
0.013966
  0
VERTEX
  8
0
 10
324.398443
 20
143.409494
 42
0.160141
  0
VERTEX
  8
0
 10
322.365939
 20
143.310182
 42
-0.028174
  0
VERTEX
  8
0
 10
321.674258
 20
143.088561
 42
-0.159170
  0
VERTEX
  8
0
 10
321.292635
 20
143.112233
 42
-0.358950
  0
VERTEX
  8
0
 10
321.174792
 20
143.325957
 42
-0.092317
  0
VERTEX
  8
0
 10
321.328108
 20
143.721872
 42
0.466902
  0
VERTEX
  8
0
 10
320.924339
 20
144.940009
 42
0.003813
  0
VERTEX
  8
0
 10
310.260553
 20
149.069507
 42
0.011361
  0
VERTEX
  8
0
 10
299.116976
 20
153.000314
 42
0.015981
  0
VERTEX
  8
0
 10
289.000000
 20
155.958129
 42
-0.001181
  0
VERTEX
  8
0
 10
287.139632
 20
156.442756
 42
-0.001161
  0
VERTEX
  8
0
 10
285.271026
 20
156.938885
 42
-0.001140
  0
VERTEX
  8
0
 10
283.634964
 20
157.381342
 42
-0.004430
  0
VERTEX
  8
0
 10
282.624771
 20
157.666654
 42
0.028047
  0
VERTEX
  8
0
 10
281.756859
 20
157.868082
 42
0.196187
  0
VERTEX
  8
0
 10
281.340624
 20
157.776974
 42
0.311943
  0
VERTEX
  8
0
 10
281.221538
 20
157.463549
 42
0.058615
  0
VERTEX
  8
0
 10
281.448928
 20
156.857134
 42
-0.033170
  0
VERTEX
  8
0
 10
281.630075
 20
156.439813
 42
-0.634928
  0
VERTEX
  8
0
 10
281.553899
 20
156.364063
 42
-0.121230
  0
VERTEX
  8
0
 10
281.311144
 20
156.526635
 42
-0.010810
  0
VERTEX
  8
0
 10
280.824157
 20
157.084356
 42
0.099832
  0
VERTEX
  8
0
 10
279.226260
 20
158.364972
 42
0.050131
  0
VERTEX
  8
0
 10
276.810994
 20
159.319690
 42
0.058505
  0
VERTEX
  8
0
 10
274.672393
 20
159.663457
 42
0.426718
  0
VERTEX
  8
0
 10
274.000000
 20
159.019052
 42
-0.103039
  0
VERTEX
  8
0
 10
273.919006
 20
158.630200
 42
-0.098800
  0
VERTEX
  8
0
 10
273.688914
 20
158.299347
 42
-0.096953
  0
VERTEX
  8
0
 10
273.345207
 20
158.077649
 42
-0.095177
  0
VERTEX
  8
0
 10
272.940983
 20
158.000000
 42
-0.102142
  0
VERTEX
  8
0
 10
272.582999
 20
158.073902
 42
-0.178291
  0
VERTEX
  8
0
 10
272.366127
 20
158.280041
 42
-0.166734
  0
VERTEX
  8
0
 10
272.326492
 20
158.589309
 42
-0.087878
  0
VERTEX
  8
0
 10
272.471157
 20
158.953331
 42
0.502236
  0
VERTEX
  8
0
 10
271.995556
 20
160.153496
 42
0.008060
  0
VERTEX
  8
0
 10
263.799595
 20
162.215837
 42
0.009821
  0
VERTEX
  8
0
 10
255.557442
 20
163.979044
 42
0.188351
  0
VERTEX
  8
0
 10
253.023935
 20
163.514793
 42
-0.200961
  0
VERTEX
  8
0
 10
252.762787
 20
163.473469
 42
-0.182014
  0
VERTEX
  8
0
 10
252.536198
 20
163.628417
 42
-0.104944
  0
VERTEX
  8
0
 10
252.382757
 20
163.989526
 42
-0.048206
  0
VERTEX
  8
0
 10
252.333333
 20
164.500956
 42
-0.077875
  0
VERTEX
  8
0
 10
252.423391
 20
165.075666
 42
-0.065126
  0
VERTEX
  8
0
 10
252.687201
 20
165.634664
 42
-0.066738
  0
VERTEX
  8
0
 10
253.077436
 20
166.093953
 42
-0.091963
  0
VERTEX
  8
0
 10
253.537988
 20
166.376204
 42
0.189431
  0
VERTEX
  8
0
 10
254.722473
 20
167.459554
 42
0.068193
  0
VERTEX
  8
0
 10
255.452403
 20
169.666891
 42
0.069285
  0
VERTEX
  8
0
 10
255.554556
 20
171.943571
 42
0.219370
  0
VERTEX
  8
0
 10
254.807990
 20
173.231274
 42
-0.006714
  0
VERTEX
  8
0
 10
254.125136
 20
173.725935
 42
-0.327423
  0
VERTEX
  8
0
 10
254.078565
 20
173.877773
 42
-0.385393
  0
VERTEX
  8
0
 10
254.205888
 20
173.947307
 42
-0.007544
  0
VERTEX
  8
0
 10
254.987634
 20
173.746920
 42
0.337315
  0
VERTEX
  8
0
 10
256.574313
 20
174.389218
 42
0.061807
  0
VERTEX
  8
0
 10
257.925827
 20
177.481541
 42
0.042071
  0
VERTEX
  8
0
 10
258.942281
 20
182.382797
 42
0.019961
  0
VERTEX
  8
0
 10
259.461134
 20
188.815980
 42
-0.006452
  0
VERTEX
  8
0
 10
259.634004
 20
192.046167
 42
-0.009615
  0
VERTEX
  8
0
 10
259.875940
 20
194.865592
 42
-0.005185
  0
VERTEX
  8
0
 10
260.148430
 20
197.220469
 42
-0.166470
  0
VERTEX
  8
0
 10
260.399313
 20
197.732647
 42
0.147185
  0
VERTEX
  8
0
 10
260.990427
 20
198.832572
 42
0.094694
  0
VERTEX
  8
0
 10
261.007977
 20
200.291060
 42
0.148735
  0
VERTEX
  8
0
 10
260.509757
 20
201.266802
 42
0.349352
  0
VERTEX
  8
0
 10
259.750000
 20
201.367059
 42
-0.013377
  0
VERTEX
  8
0
 10
259.119562
 20
201.010900
 42
-0.539665
  0
VERTEX
  8
0
 10
259.003261
 20
201.074777
 42
-0.185983
  0
VERTEX
  8
0
 10
259.071644
 20
201.304790
 42
-0.005776
  0
VERTEX
  8
0
 10
259.692798
 20
202.091580
 42
0.068411
  0
VERTEX
  8
0
 10
260.095649
 20
202.758735
 42
0.066735
  0
VERTEX
  8
0
 10
260.307817
 20
203.515476
 42
0.071232
  0
VERTEX
  8
0
 10
260.306237
 20
204.253066
 42
0.102661
  0
VERTEX
  8
0
 10
260.083782
 20
204.864438
 42
-0.101104
  0
VERTEX
  8
0
 10
259.795307
 20
205.649717
 42
-0.019837
  0
VERTEX
  8
0
 10
259.628054
 20
207.152247
 42
-0.020306
  0
VERTEX
  8
0
 10
259.573112
 20
208.948223
 42
-0.017603
  0
VERTEX
  8
0
 10
259.658318
 20
210.830899
 42
0.022240
  0
VERTEX
  8
0
 10
259.804406
 20
214.891864
 42
0.061876
  0
VERTEX
  8
0
 10
259.429111
 20
217.716123
 42
0.106948
  0
VERTEX
  8
0
 10
258.563183
 20
219.425945
 42
0.208444
  0
VERTEX
  8
0
 10
257.230948
 20
220.116001
 42
-0.002432
  0
VERTEX
  8
0
 10
256.094545
 20
220.197712
 42
-0.401551
  0
VERTEX
  8
0
 10
256.018304
 20
220.282825
 42
-0.329561
  0
VERTEX
  8
0
 10
256.097567
 20
220.382888
 42
-0.002140
  0
VERTEX
  8
0
 10
257.250000
 20
220.689326
 42
0.142825
  0
VERTEX
  8
0
 10
258.404891
 20
221.380570
 42
0.194926
  0
VERTEX
  8
0
 10
258.830718
 20
222.502687
 42
0.036284
  0
VERTEX
  8
0
 10
258.602844
 20
224.897604
 42
0.001133
  0
VERTEX
  8
0
 10
256.939165
 20
234.608955
 42
0.008961
  0
VERTEX
  8
0
 10
256.007310
 20
239.458135
 42
0.013625
  0
VERTEX
  8
0
 10
255.008294
 20
243.630318
 42
0.012125
  0
VERTEX
  8
0
 10
254.035362
 20
246.932597
 42
0.106601
  0
VERTEX
  8
0
 10
253.278629
 20
248.244613
 42
-0.037199
  0
VERTEX
  8
0
 10
252.714401
 20
248.969813
 42
-0.054499
  0
VERTEX
  8
0
 10
252.342873
 20
249.687047
 42
-0.069896
  0
VERTEX
  8
0
 10
252.201508
 20
250.292193
 42
-0.222392
  0
VERTEX
  8
0
 10
252.339464
 20
250.672797
 42
-0.141125
  0
VERTEX
  8
0
 10
252.589539
 20
250.811042
 42
-0.260460
  0
VERTEX
  8
0
 10
252.805968
 20
250.747634
 42
-0.146212
  0
VERTEX
  8
0
 10
252.954225
 20
250.466871
 42
-0.048906
  0
VERTEX
  8
0
 10
253.000000
 20
250.000000
 42
0.035590
  0
VERTEX
  8
0
 10
253.034127
 20
249.521167
 42
0.098650
  0
VERTEX
  8
0
 10
253.145877
 20
249.204211
 42
0.234740
  0
VERTEX
  8
0
 10
253.310028
 20
249.098058
 42
0.228429
  0
VERTEX
  8
0
 10
253.496603
 20
249.163270
 42
0.238138
  0
VERTEX
  8
0
 10
253.630406
 20
249.569986
 42
0.010134
  0
VERTEX
  8
0
 10
253.366711
 20
251.106140
 42
0.015510
  0
VERTEX
  8
0
 10
252.948094
 20
252.966891
 42
0.010217
  0
VERTEX
  8
0
 10
252.357058
 20
255.079937
 42
0.013029
  0
VERTEX
  8
0
 10
251.697311
 20
257.075961
 42
0.029355
  0
VERTEX
  8
0
 10
251.071166
 20
258.540669
 42
0.057746
  0
VERTEX
  8
0
 10
250.573962
 20
259.302828
 42
0.581575
  0
VERTEX
  8
0
 10
250.277122
 20
259.250000
 42
-0.062765
  0
VERTEX
  8
0
 10
250.036440
 20
258.772068
 42
-0.062207
  0
VERTEX
  8
0
 10
249.684090
 20
258.367188
 42
-0.067905
  0
VERTEX
  8
0
 10
249.278501
 20
258.092792
 42
-0.115308
  0
VERTEX
  8
0
 10
248.881483
 20
258.000000
 42
-0.265004
  0
VERTEX
  8
0
 10
248.594011
 20
258.163871
 42
-0.150787
  0
VERTEX
  8
0
 10
248.497911
 20
258.564754
 42
-0.075926
  0
VERTEX
  8
0
 10
248.638528
 20
259.206829
 42
-0.031069
  0
VERTEX
  8
0
 10
249.011060
 20
260.020667
 42
0.040924
  0
VERTEX
  8
0
 10
249.378945
 20
260.868036
 42
0.044177
  0
VERTEX
  8
0
 10
249.592525
 20
261.742720
 42
0.048718
  0
VERTEX
  8
0
 10
249.634295
 20
262.517797
 42
0.128209
  0
VERTEX
  8
0
 10
249.471914
 20
263.045443
 42
-0.050063
  0
VERTEX
  8
0
 10
249.290483
 20
263.417673
 42
-0.151505
  0
VERTEX
  8
0
 10
249.275781
 20
263.696055
 42
-0.261950
  0
VERTEX
  8
0
 10
249.414902
 20
263.842328
 42
-0.134622
  0
VERTEX
  8
0
 10
249.675670
 20
263.850265
 42
0.102246
  0
VERTEX
  8
0
 10
250.144792
 20
263.834579
 42
0.019056
  0
VERTEX
  8
0
 10
250.992228
 20
264.013849
 42
0.019702
  0
VERTEX
  8
0
 10
251.982423
 20
264.305002
 42
0.016874
  0
VERTEX
  8
0
 10
253.000000
 20
264.687000
 42
-0.006038
  0
VERTEX
  8
0
 10
254.204846
 20
265.169335
 42
-0.002735
  0
VERTEX
  8
0
 10
255.793750
 20
265.773296
 42
-0.002707
  0
VERTEX
  8
0
 10
257.477209
 20
266.392313
 42
-0.003705
  0
VERTEX
  8
0
 10
259.000000
 20
266.930187
 42
0.002915
  0
VERTEX
  8
0
 10
268.887262
 20
270.404972
 42
0.020103
  0
VERTEX
  8
0
 10
273.657449
 20
272.332340
 42
0.040541
  0
VERTEX
  8
0
 10
276.149140
 20
273.710517
 42
0.351190
  0
VERTEX
  8
0
 10
276.508926
 20
274.837335
 42
-0.018505
  0
VERTEX
  8
0
 10
276.259093
 20
275.568150
 42
-0.407250
  0
VERTEX
  8
0
 10
276.354081
 20
275.750122
 42
-0.246048
  0
VERTEX
  8
0
 10
276.616592
 20
275.706064
 42
-0.010983
  0
VERTEX
  8
0
 10
277.360325
 20
275.115920
 42
0.037599
  0
VERTEX
  8
0
 10
278.090849
 20
274.597077
 42
0.174664
  0
VERTEX
  8
0
 10
278.590184
 20
274.497645
 42
0.210329
  0
VERTEX
  8
0
 10
278.981118
 20
274.744868
 42
0.056530
  0
VERTEX
  8
0
 10
279.327791
 20
275.411826
 42
0.257527
  0
VERTEX
  8
0
 10
279.152284
 20
276.678382
 42
0.251807
  0
VERTEX
  8
0
 10
277.982035
 20
277.223099
 42
0.108954
  0
VERTEX
  8
0
 10
275.866045
 20
276.626614
 42
0.062462
  0
VERTEX
  8
0
 10
273.692711
 20
275.086253
 42
0.000000
  0
VERTEX
  8
0
 10
270.885422
 20
272.516045
 42
0.000000
  0
VERTEX
  8
0
 10
271.807264
 20
275.008022
 42
-0.028049
  0
VERTEX
  8
0
 10
272.225133
 20
275.968414
 42
-0.036237
  0
VERTEX
  8
0
 10
272.718415
 20
276.793352
 42
-0.039357
  0
VERTEX
  8
0
 10
273.213006
 20
277.392566
 42
-0.178060
  0
VERTEX
  8
0
 10
273.614553
 20
277.586367
 42
0.034677
  0
VERTEX
  8
0
 10
274.070717
 20
277.663055
 42
0.010342
  0
VERTEX
  8
0
 10
274.753963
 20
277.842305
 42
0.010319
  0
VERTEX
  8
0
 10
275.515051
 20
278.075978
 42
0.010985
  0
VERTEX
  8
0
 10
276.250000
 20
278.336367
 42
-0.003987
  0
VERTEX
  8
0
 10
277.039333
 20
278.628519
 42
-0.002488
  0
VERTEX
  8
0
 10
277.968606
 20
278.958847
 42
-0.002496
  0
VERTEX
  8
0
 10
278.887916
 20
279.275349
 42
-0.004532
  0
VERTEX
  8
0
 10
279.643128
 20
279.523539
 42
0.034296
  0
VERTEX
  8
0
 10
280.238625
 20
279.759332
 42
0.068926
  0
VERTEX
  8
0
 10
280.659716
 20
280.037159
 42
0.123896
  0
VERTEX
  8
0
 10
280.846300
 20
280.307907
 42
0.293591
  0
VERTEX
  8
0
 10
280.796480
 20
280.536853
 42
0.262852
  0
VERTEX
  8
0
 10
280.375689
 20
280.653911
 42
0.005514
  0
VERTEX
  8
0
 10
278.202404
 20
280.090223
 42
0.011327
  0
VERTEX
  8
0
 10
275.622283
 20
279.327416
 42
0.007203
  0
VERTEX
  8
0
 10
272.653352
 20
278.328640
 42
0.011830
  0
VERTEX
  8
0
 10
269.269974
 20
277.045149
 42
0.030297
  0
VERTEX
  8
0
 10
266.908440
 20
275.913657
 42
0.040037
  0
VERTEX
  8
0
 10
265.398842
 20
274.908519
 42
0.227181
  0
VERTEX
  8
0
 10
264.984687
 20
274.065325
 42
-0.013531
  0
VERTEX
  8
0
 10
264.952987
 20
273.205307
 42
-0.355843
  0
VERTEX
  8
0
 10
264.806487
 20
273.047304
 42
-0.283236
  0
VERTEX
  8
0
 10
264.585430
 20
273.144067
 42
-0.010503
  0
VERTEX
  8
0
 10
264.060903
 20
273.935698
 42
0.051427
  0
VERTEX
  8
0
 10
263.524126
 20
274.617514
 42
0.185600
  0
VERTEX
  8
0
 10
263.031342
 20
274.845951
 42
0.156978
  0
VERTEX
  8
0
 10
262.457459
 20
274.702855
 42
0.034249
  0
VERTEX
  8
0
 10
261.620020
 20
274.099608
 42
-0.054519
  0
VERTEX
  8
0
 10
260.956352
 20
273.661187
 42
-0.059129
  0
VERTEX
  8
0
 10
260.231138
 20
273.390908
 42
-0.066780
  0
VERTEX
  8
0
 10
259.556082
 20
273.319589
 42
-0.132129
  0
VERTEX
  8
0
 10
259.043805
 20
273.472927
 42
0.083812
  0
VERTEX
  8
0
 10
258.645029
 20
273.635143
 42
0.162540
  0
VERTEX
  8
0
 10
258.306618
 20
273.600111
 42
0.181404
  0
VERTEX
  8
0
 10
258.081524
 20
273.375504
 42
0.107303
  0
VERTEX
  8
0
 10
258.000000
 20
273.000000
 42
-0.087006
  0
VERTEX
  8
0
 10
257.932456
 20
272.614784
 42
-0.165871
  0
VERTEX
  8
0
 10
257.738012
 20
272.372306
 42
-0.178970
  0
VERTEX
  8
0
 10
257.448031
 20
272.309906
 42
-0.103199
  0
VERTEX
  8
0
 10
257.108125
 20
272.433175
 42
0.218316
  0
VERTEX
  8
0
 10
255.435231
 20
272.641154
 42
0.021488
  0
VERTEX
  8
0
 10
251.524156
 20
271.217190
 42
0.020082
  0
VERTEX
  8
0
 10
247.747713
 20
269.474736
 42
0.281702
  0
VERTEX
  8
0
 10
247.000000
 20
268.252916
 42
-0.097520
  0
VERTEX
  8
0
 10
246.892845
 20
267.708741
 42
-0.066866
  0
VERTEX
  8
0
 10
246.577923
 20
267.161747
 42
-0.064129
  0
VERTEX
  8
0
 10
246.112440
 20
266.694960
 42
-0.073207
  0
VERTEX
  8
0
 10
245.563142
 20
266.385856
 42
0.108697
  0
VERTEX
  8
0
 10
245.049536
 20
266.047188
 42
0.096171
  0
VERTEX
  8
0
 10
244.698059
 20
265.510192
 42
0.090645
  0
VERTEX
  8
0
 10
244.559762
 20
264.851666
 42
0.083774
  0
VERTEX
  8
0
 10
244.656878
 20
264.167241
 42
0.011530
  0
VERTEX
  8
0
 10
245.924808
 20
260.479599
 42
0.052239
  0
VERTEX
  8
0
 10
246.930083
 20
258.443479
 42
0.102056
  0
VERTEX
  8
0
 10
247.953851
 20
257.380059
 42
0.151387
  0
VERTEX
  8
0
 10
249.180337
 20
257.000000
 42
-0.052200
  0
VERTEX
  8
0
 10
249.878180
 20
256.926946
 42
-0.113321
  0
VERTEX
  8
0
 10
250.364327
 20
256.701458
 42
-0.187116
  0
VERTEX
  8
0
 10
250.564420
 20
256.368311
 42
-0.183130
  0
VERTEX
  8
0
 10
250.489919
 20
255.983688
 42
-0.107504
  0
VERTEX
  8
0
 10
250.165932
 20
255.648066
 42
-0.099560
  0
VERTEX
  8
0
 10
249.722940
 20
255.465773
 42
-0.095744
  0
VERTEX
  8
0
 10
249.228981
 20
255.465272
 42
-0.091172
  0
VERTEX
  8
0
 10
248.760963
 20
255.647733
 42
0.081564
  0
VERTEX
  8
0
 10
248.333202
 20
255.823970
 42
0.369149
  0
VERTEX
  8
0
 10
248.111964
 20
255.709010
 42
0.163644
  0
VERTEX
  8
0
 10
248.088737
 20
255.321702
 42
0.025479
  0
VERTEX
  8
0
 10
248.330061
 20
254.582257
 42
-0.023590
  0
VERTEX
  8
0
 10
248.586681
 20
253.805899
 42
-0.016783
  0
VERTEX
  8
0
 10
248.803205
 20
252.915327
 42
-0.016995
  0
VERTEX
  8
0
 10
248.952634
 20
252.049765
 42
-0.034255
  0
VERTEX
  8
0
 10
249.000000
 20
251.359196
 42
0.050309
  0
VERTEX
  8
0
 10
249.053799
 20
250.825865
 42
0.109312
  0
VERTEX
  8
0
 10
249.220313
 20
250.451818
 42
0.184767
  0
VERTEX
  8
0
 10
249.466273
 20
250.294583
 42
0.191323
  0
VERTEX
  8
0
 10
249.750000
 20
250.344659
 42
-0.388582
  0
VERTEX
  8
0
 10
250.053382
 20
250.286791
 42
-0.073687
  0
VERTEX
  8
0
 10
250.345105
 20
249.745043
 42
-0.045692
  0
VERTEX
  8
0
 10
250.583897
 20
248.830987
 42
-0.023433
  0
VERTEX
  8
0
 10
250.722698
 20
247.653676
 42
0.014407
  0
VERTEX
  8
0
 10
251.130826
 20
243.557597
 42
0.023507
  0
VERTEX
  8
0
 10
251.739069
 20
240.120071
 42
0.020049
  0
VERTEX
  8
0
 10
252.440608
 20
237.506372
 42
0.328195
  0
VERTEX
  8
0
 10
253.128963
 20
237.000000
 42
-0.265974
  0
VERTEX
  8
0
 10
253.444081
 20
236.819613
 42
-0.084248
  0
VERTEX
  8
0
 10
253.643708
 20
236.293847
 42
-0.058549
  0
VERTEX
  8
0
 10
253.704258
 20
235.517243
 42
-0.035072
  0
VERTEX
  8
0
 10
253.603200
 20
234.596075
 42
0.048910
  0
VERTEX
  8
0
 10
253.505883
 20
233.406762
 42
0.019402
  0
VERTEX
  8
0
 10
253.595906
 20
231.768518
 42
0.018981
  0
VERTEX
  8
0
 10
253.830766
 20
229.994888
 42
0.022606
  0
VERTEX
  8
0
 10
254.190506
 20
228.346075
 42
-0.016409
  0
VERTEX
  8
0
 10
254.577492
 20
226.672233
 42
-0.012592
  0
VERTEX
  8
0
 10
254.893590
 20
224.821972
 42
-0.012775
  0
VERTEX
  8
0
 10
255.101602
 20
223.074435
 42
-0.029294
  0
VERTEX
  8
0
 10
255.147120
 20
221.750000
 42
0.036961
  0
VERTEX
  8
0
 10
255.199479
 20
220.696776
 42
0.056373
  0
VERTEX
  8
0
 10
255.413432
 20
219.807812
 42
0.074810
  0
VERTEX
  8
0
 10
255.743575
 20
219.200828
 42
0.235014
  0
VERTEX
  8
0
 10
256.147246
 20
219.000000
 42
-0.144539
  0
VERTEX
  8
0
 10
256.511427
 20
218.892477
 42
-0.152637
  0
VERTEX
  8
0
 10
256.749500
 20
218.606174
 42
-0.119075
  0
VERTEX
  8
0
 10
256.816772
 20
218.171975
 42
-0.070889
  0
VERTEX
  8
0
 10
256.699509
 20
217.659316
 42
0.075350
  0
VERTEX
  8
0
 10
256.564771
 20
217.045237
 42
0.047178
  0
VERTEX
  8
0
 10
256.585934
 20
216.308324
 42
0.046273
  0
VERTEX
  8
0
 10
256.747914
 20
215.568261
 42
0.061482
  0
VERTEX
  8
0
 10
257.035318
 20
214.942855
 42
-0.078132
  0
VERTEX
  8
0
 10
257.297373
 20
214.318912
 42
-0.072143
  0
VERTEX
  8
0
 10
257.365159
 20
213.626894
 42
-0.073701
  0
VERTEX
  8
0
 10
257.234029
 20
212.957810
 42
-0.088242
  0
VERTEX
  8
0
 10
256.917274
 20
212.400322
 42
0.076718
  0
VERTEX
  8
0
 10
256.585666
 20
211.846599
 42
0.180335
  0
VERTEX
  8
0
 10
256.571610
 20
211.372189
 42
0.161623
  0
VERTEX
  8
0
 10
256.876655
 20
210.968993
 42
0.059125
  0
VERTEX
  8
0
 10
257.517601
 20
210.631620
 42
-0.078689
  0
VERTEX
  8
0
 10
258.172944
 20
210.253376
 42
-0.146612
  0
VERTEX
  8
0
 10
258.515710
 20
209.751419
 42
-0.130079
  0
VERTEX
  8
0
 10
258.547903
 20
209.098617
 42
-0.055946
  0
VERTEX
  8
0
 10
258.270480
 20
208.264837
 42
0.047362
  0
VERTEX
  8
0
 10
257.827659
 20
207.006313
 42
0.047152
  0
VERTEX
  8
0
 10
257.628728
 20
205.685062
 42
0.028213
  0
VERTEX
  8
0
 10
257.630930
 20
203.859444
 42
0.006012
  0
VERTEX
  8
0
 10
257.851940
 20
200.690983
 42
0.059583
  0
VERTEX
  8
0
 10
257.983470
 20
200.044415
 42
0.116614
  0
VERTEX
  8
0
 10
258.257485
 20
199.599379
 42
0.171821
  0
VERTEX
  8
0
 10
258.623868
 20
199.424018
 42
0.166427
  0
VERTEX
  8
0
 10
259.024605
 20
199.515207
 42
-0.564300
  0
VERTEX
  8
0
 10
259.219193
 20
199.415397
 42
-0.098816
  0
VERTEX
  8
0
 10
259.153505
 20
198.903570
 42
-0.033657
  0
VERTEX
  8
0
 10
258.733625
 20
197.887662
 42
-0.013137
  0
VERTEX
  8
0
 10
258.024605
 20
196.543807
 42
0.035517
  0
VERTEX
  8
0
 10
256.658382
 20
193.647416
 42
0.064702
  0
VERTEX
  8
0
 10
256.036385
 20
191.111453
 42
0.176808
  0
VERTEX
  8
0
 10
256.350611
 20
189.820138
 42
0.396868
  0
VERTEX
  8
0
 10
257.250000
 20
189.612877
 42
-0.150439
  0
VERTEX
  8
0
 10
257.535121
 20
189.679780
 42
-0.506247
  0
VERTEX
  8
0
 10
257.621200
 20
189.544105
 42
-0.072069
  0
VERTEX
  8
0
 10
257.358593
 20
189.080936
 42
-0.014731
  0
VERTEX
  8
0
 10
256.758342
 20
188.352371
 42
0.067917
  0
VERTEX
  8
0
 10
256.014906
 20
187.224957
 42
0.020951
  0
VERTEX
  8
0
 10
255.210442
 20
185.350730
 42
0.020532
  0
VERTEX
  8
0
 10
254.476914
 20
183.155552
 42
0.021191
  0
VERTEX
  8
0
 10
253.934627
 20
180.930477
 42
-0.000515
  0
VERTEX
  8
0
 10
253.503368
 20
178.777713
 42
-0.000665
  0
VERTEX
  8
0
 10
253.102612
 20
176.801453
 42
-0.000503
  0
VERTEX
  8
0
 10
252.762787
 20
175.145537
 42
-0.005866
  0
VERTEX
  8
0
 10
252.621719
 20
174.500000
 42
-0.062114
  0
VERTEX
  8
0
 10
251.837306
 20
172.357390
 42
-0.024476
  0
VERTEX
  8
0
 10
250.262868
 20
169.632643
 42
-0.024132
  0
VERTEX
  8
0
 10
248.453299
 20
167.104092
 42
-0.072721
  0
VERTEX
  8
0
 10
246.914656
 20
165.652776
 42
0.059325
  0
VERTEX
  8
0
 10
246.125322
 20
164.947063
 42
0.059491
  0
VERTEX
  8
0
 10
245.524617
 20
164.076356
 42
0.064492
  0
VERTEX
  8
0
 10
245.185610
 20
163.165419
 42
0.104414
  0
VERTEX
  8
0
 10
245.169644
 20
162.342072
 42
0.179346
  0
VERTEX
  8
0
 10
245.761326
 20
161.363013
 42
0.099385
  0
VERTEX
  8
0
 10
247.019682
 20
160.717221
 42
0.042702
  0
VERTEX
  8
0
 10
249.365946
 20
160.264330
 42
0.006868
  0
VERTEX
  8
0
 10
254.010699
 20
159.837710
 42
-0.007988
  0
VERTEX
  8
0
 10
257.499178
 20
159.509411
 42
-0.008088
  0
VERTEX
  8
0
 10
260.960955
 20
159.070958
 42
-0.007926
  0
VERTEX
  8
0
 10
263.959867
 20
158.593112
 42
-0.032427
  0
VERTEX
  8
0
 10
265.750000
 20
158.157515
 42
0.016185
  0
VERTEX
  8
0
 10
267.326974
 20
157.719110
 42
0.072238
  0
VERTEX
  8
0
 10
268.280278
 20
157.628691
 42
0.172764
  0
VERTEX
  8
0
 10
268.799712
 20
157.843307
 42
0.208928
  0
VERTEX
  8
0
 10
269.015313
 20
158.319806
 42
-0.038354
  0
VERTEX
  8
0
 10
269.058968
 20
158.805486
 42
-0.324108
  0
VERTEX
  8
0
 10
269.206510
 20
158.950755
 42
-0.256403
  0
VERTEX
  8
0
 10
269.426221
 20
158.870253
 42
-0.028573
  0
VERTEX
  8
0
 10
269.765313
 20
158.433759
 42
0.146681
  0
VERTEX
  8
0
 10
270.411213
 20
157.915516
 42
0.008661
  0
VERTEX
  8
0
 10
272.781061
 20
157.002954
 42
0.012469
  0
VERTEX
  8
0
 10
275.690273
 20
156.021685
 42
0.008829
  0
VERTEX
  8
0
 10
279.000000
 20
155.060208
 42
-0.002418
  0
VERTEX
  8
0
 10
282.834676
 20
153.999352
 42
-0.001475
  0
VERTEX
  8
0
 10
287.353125
 20
152.711370
 42
-0.001478
  0
VERTEX
  8
0
 10
291.823655
 20
151.408450
 42
-0.002621
  0
VERTEX
  8
0
 10
295.500000
 20
150.304216
 42
0.004149
  0
VERTEX
  8
0
 10
298.691480
 20
149.356240
 42
0.005216
  0
VERTEX
  8
0
 10
301.664062
 20
148.533541
 42
0.004211
  0
VERTEX
  8
0
 10
304.167328
 20
147.891284
 42
0.040666
  0
VERTEX
  8
0
 10
305.250000
 20
147.714962
 42
-0.040048
  0
VERTEX
  8
0
 10
305.919957
 20
147.606702
 42
-0.056758
  0
VERTEX
  8
0
 10
306.485937
 20
147.397756
 42
-0.072027
  0
VERTEX
  8
0
 10
306.872705
 20
147.126945
 42
-0.206913
  0
VERTEX
  8
0
 10
307.000000
 20
146.832509
 42
0.275489
  0
VERTEX
  8
0
 10
307.194299
 20
146.506628
 42
0.028997
  0
VERTEX
  8
0
 10
308.031370
 20
146.115068
 42
0.029374
  0
VERTEX
  8
0
 10
309.165650
 20
145.738138
 42
0.019165
  0
VERTEX
  8
0
 10
310.511045
 20
145.431950
 42
-0.018175
  0
VERTEX
  8
0
 10
311.892036
 20
145.120536
 42
-0.023153
  0
VERTEX
  8
0
 10
313.137542
 20
144.729198
 42
-0.022053
  0
VERTEX
  8
0
 10
314.126398
 20
144.317132
 42
-0.145590
  0
VERTEX
  8
0
 10
314.521908
 20
143.964553
 42
0.147614
  0
VERTEX
  8
0
 10
314.983550
 20
143.556292
 42
0.007682
  0
VERTEX
  8
0
 10
316.816982
 20
142.747111
 42
0.011619
  0
VERTEX
  8
0
 10
319.063838
 20
141.857402
 42
0.008137
  0
VERTEX
  8
0
 10
321.633056
 20
140.955722
 42
-0.016884
  0
VERTEX
  8
0
 10
324.316334
 20
139.960966
 42
-0.017153
  0
VERTEX
  8
0
 10
326.912017
 20
138.792187
 42
-0.017202
  0
VERTEX
  8
0
 10
329.093772
 20
137.623446
 42
-0.064893
  0
VERTEX
  8
0
 10
330.319988
 20
136.680012
 42
0.088653
  0
VERTEX
  8
0
 10
332.367784
 20
135.253172
 42
0.019865
  0
VERTEX
  8
0
 10
336.315488
 20
133.621284
 42
0.021457
  0
VERTEX
  8
0
 10
340.521797
 20
132.276896
 42
0.051356
  0
VERTEX
  8
0
 10
343.750000
 20
131.743263
 42
-0.064109
  0
VERTEX
  8
0
 10
344.227879
 20
131.651732
 42
-0.078145
  0
VERTEX
  8
0
 10
344.632812
 20
131.444375
 42
-0.092230
  0
VERTEX
  8
0
 10
344.904470
 20
131.157191
 42
-0.144412
  0
VERTEX
  8
0
 10
345.000000
 20
130.833333
 42
0.091814
  0
VERTEX
  8
0
 10
345.057225
 20
130.524323
 42
0.111235
  0
VERTEX
  8
0
 10
345.220312
 20
130.279578
 42
0.117903
  0
VERTEX
  8
0
 10
345.464102
 20
130.137807
 42
0.112625
  0
VERTEX
  8
0
 10
345.750000
 20
130.118421
 42
-0.037629
  0
VERTEX
  8
0
 10
346.091571
 20
130.146280
 42
-0.022329
  0
VERTEX
  8
0
 10
346.500000
 20
130.130551
 42
-0.022270
  0
VERTEX
  8
0
 10
346.908286
 20
130.078139
 42
-0.035422
  0
VERTEX
  8
0
 10
347.250000
 20
129.993421
 42
0.012939
  0
VERTEX
  8
0
 10
348.351054
 20
129.667298
 42
0.015804
  0
VERTEX
  8
0
 10
349.396750
 20
129.421928
 42
0.015972
  0
VERTEX
  8
0
 10
350.446363
 20
129.245071
 42
0.013746
  0
VERTEX
  8
0
 10
351.559017
 20
129.125000
 42
-0.052642
  0
VERTEX
  8
0
 10
352.121010
 20
129.019715
 42
-0.105065
  0
VERTEX
  8
0
 10
352.516212
 20
128.803947
 42
-0.167088
  0
VERTEX
  8
0
 10
352.683870
 20
128.518176
 42
-0.190513
  0
VERTEX
  8
0
 10
352.628295
 20
128.207586
 42
0.276251
  0
VERTEX
  8
0
 10
352.623740
 20
127.893801
 42
0.133011
  0
VERTEX
  8
0
 10
352.919737
 20
127.599935
 42
0.074023
  0
VERTEX
  8
0
 10
353.510772
 20
127.371009
 42
0.036660
  0
VERTEX
  8
0
 10
354.308158
 20
127.251740
 42
-0.064510
  0
VERTEX
  8
0
 10
356.827514
 20
126.730468
 42
-0.023406
  0
VERTEX
  8
0
 10
360.224396
 20
125.374996
 42
-0.015588
  0
VERTEX
  8
0
 10
363.430638
 20
123.795843
 42
-0.277289
  0
VERTEX
  8
0
 10
364.000000
 20
122.848126
 42
0.092573
  0
VERTEX
  8
0
 10
364.057332
 20
122.541120
 42
0.126294
  0
VERTEX
  8
0
 10
364.220312
 20
122.313068
 42
0.134512
  0
VERTEX
  8
0
 10
364.464224
 20
122.200727
 42
0.112124
  0
VERTEX
  8
0
 10
364.750000
 20
122.217639
 42
-0.152972
  0
VERTEX
  8
0
 10
366.201023
 20
122.186928
 42
-0.024075
  0
VERTEX
  8
0
 10
368.893569
 20
121.133612
 42
-0.027758
  0
VERTEX
  8
0
 10
371.610326
 20
119.731174
 42
-0.057932
  0
VERTEX
  8
0
 10
373.506460
 20
118.296369
 42
0.042541
  0
VERTEX
  8
0
 10
374.677166
 20
117.352603
 42
0.010226
  0
VERTEX
  8
0
 10
376.774270
 20
115.999537
 42
0.010429
  0
VERTEX
  8
0
 10
379.254124
 20
114.540914
 42
0.010169
  0
VERTEX
  8
0
 10
381.813337
 20
113.174232
 42
-0.004796
  0
VERTEX
  8
0
 10
384.313205
 20
111.873569
 42
-0.005946
  0
VERTEX
  8
0
 10
386.613486
 20
110.613232
 42
-0.004928
  0
VERTEX
  8
0
 10
388.518892
 20
109.514716
 42
-0.043741
  0
VERTEX
  8
0
 10
389.306877
 20
108.951854
 42
0.037483
  0
VERTEX
  8
0
 10
394.418279
 20
105.203430
 42
0.005538
  0
VERTEX
  8
0
 10
405.366837
 20
98.539670
 42
0.002457
  0
VERTEX
  8
0
 10
417.079020
 20
91.665328
 42
0.132224
  0
VERTEX
  8
0
 10
419.550943
 20
91.000000
 42
-0.109417
  0
VERTEX
  8
0
 10
420.410727
 20
90.809569
 42
-0.001385
  0
VERTEX
  8
0
 10
425.499850
 20
88.421757
 42
-0.003976
  0
VERTEX
  8
0
 10
431.377037
 20
85.586913
 42
-0.002586
  0
VERTEX
  8
0
 10
438.123361
 20
82.223004
 42
0.001518
  0
VERTEX
  8
0
 10
451.002308
 20
75.766807
 42
0.004014
  0
VERTEX
  8
0
 10
460.269053
 20
71.248984
 42
0.003421
  0
VERTEX
  8
0
 10
470.401062
 20
66.494455
 42
0.000857
  0
VERTEX
  8
0
 10
487.000000
 20
58.877865
 42
-0.001003
  0
VERTEX
  8
0
 10
493.896427
 20
55.710923
 42
-0.001343
  0
VERTEX
  8
0
 10
500.139073
 20
52.808661
 42
-0.000929
  0
VERTEX
  8
0
 10
505.364209
 20
50.350514
 42
-0.014024
  0
VERTEX
  8
0
 10
507.154292
 20
49.442045
 42
0.021609
  0
VERTEX
  8
0
 10
508.284063
 20
48.890070
 42
0.020161
  0
VERTEX
  8
0
 10
509.483397
 20
48.423601
 42
0.020613
  0
VERTEX
  8
0
 10
510.581769
 20
48.096552
 42
0.062124
  0
VERTEX
  8
0
 10
511.355857
 20
48.000000
 42
-0.080924
  0
VERTEX
  8
0
 10
512.326620
 20
47.841848
 42
-0.006756
  0
VERTEX
  8
0
 10
514.739408
 20
46.997829
 42
-0.008865
  0
VERTEX
  8
0
 10
517.601883
 20
45.894990
 42
-0.006729
  0
VERTEX
  8
0
 10
520.701564
 20
44.588356
 42
0.010503
  0
VERTEX
  8
0
 10
526.225693
 20
42.308673
 42
0.007886
  0
VERTEX
  8
0
 10
532.393586
 20
40.024933
 42
0.005407
  0
VERTEX
  8
0
 10
540.566336
 20
37.243584
 42
0.001678
  0
VERTEX
  8
0
 10
552.911695
 20
33.236490
 42
-0.032493
  0
VERTEX
  8
0
 10
555.461719
 20
32.231374
 42
-0.023554
  0
VERTEX
  8
0
 10
558.159342
 20
30.801069
 42
-0.023031
  0
VERTEX
  8
0
 10
560.787183
 20
29.076857
 42
-0.026189
  0
VERTEX
  8
0
 10
563.130059
 20
27.185774
 42
-0.089413
  0
VERTEX
  8
0
 10
566.402993
 20
22.977212
 42
-0.365137
  0
VERTEX
  8
0
 10
565.755949
 20
20.050170
 42
-0.082542
  0
VERTEX
  8
0
 10
560.553019
 20
17.286109
 42
-0.004307
  0
VERTEX
  8
0
 10
542.500000
 20
11.403337
 42
-0.017198
  0
VERTEX
  8
0
 10
536.668633
 20
9.776866
 42
-0.031848
  0
VERTEX
  8
0
 10
531.828654
 20
8.926420
 42
-0.019725
  0
VERTEX
  8
0
 10
525.595685
 20
8.484279
 42
-0.003140
  0
VERTEX
  8
0
 10
513.359783
 20
8.177194
 42
-0.004027
  0
VERTEX
  8
0
 10
502.763623
 20
8.063205
 42
-0.011980
  0
VERTEX
  8
0
 10
495.504279
 20
8.217536
 42
-0.016696
  0
VERTEX
  8
0
 10
489.781315
 20
8.668318
 42
-0.019154
  0
VERTEX
  8
0
 10
484.359783
 20
9.489353
 42
-0.011750
  0
VERTEX
  8
0
 10
474.685054
 20
11.572698
 42
-0.008266
  0
VERTEX
  8
0
 10
463.903094
 20
14.350253
 42
-0.008324
  0
VERTEX
  8
0
 10
453.375730
 20
17.438021
 42
-0.013278
  0
VERTEX
  8
0
 10
444.500000
 20
20.463390
 42
0.006522
  0
VERTEX
  8
0
 10
440.367782
 20
21.934498
 42
0.003751
  0
VERTEX
  8
0
 10
435.353125
 20
23.604504
 42
0.003746
  0
VERTEX
  8
0
 10
430.289564
 20
25.206864
 42
0.006246
  0
VERTEX
  8
0
 10
426.000000
 20
26.470567
 42
-0.017765
  0
VERTEX
  8
0
 10
411.808148
 20
31.009251
 42
-0.019773
  0
VERTEX
  8
0
 10
398.481715
 20
36.403161
 42
-0.017953
  0
VERTEX
  8
0
 10
384.587648
 20
43.287631
 42
-0.010823
  0
VERTEX
  8
0
 10
368.609493
 20
52.384936
 42
0.011760
  0
VERTEX
  8
0
 10
352.787224
 20
61.354248
 42
0.007239
  0
VERTEX
  8
0
 10
333.772899
 20
71.198099
 42
0.007118
  0
VERTEX
  8
0
 10
315.408929
 20
80.046253
 42
0.019803
  0
VERTEX
  8
0
 10
302.196529
 20
85.557173
 42
-0.003893
  0
VERTEX
  8
0
 10
298.102494
 20
87.113839
 42
-0.003343
  0
VERTEX
  8
0
 10
293.819315
 20
88.813763
 42
-0.003367
  0
VERTEX
  8
0
 10
289.950968
 20
90.409466
 42
-0.009666
  0
VERTEX
  8
0
 10
287.294755
 20
91.587079
 42
0.022987
  0
VERTEX
  8
0
 10
284.688392
 20
92.660476
 42
0.009221
  0
VERTEX
  8
0
 10
281.035092
 20
93.896582
 42
0.009102
  0
VERTEX
  8
0
 10
277.043312
 20
95.086119
 42
0.011364
  0
VERTEX
  8
0
 10
273.294755
 20
96.038046
 42
-0.005070
  0
VERTEX
  8
0
 10
269.744339
 20
96.892234
 42
-0.005703
  0
VERTEX
  8
0
 10
266.349084
 20
97.786896
 42
-0.005254
  0
VERTEX
  8
0
 10
263.478720
 20
98.610919
 42
-0.030498
  0
VERTEX
  8
0
 10
262.000000
 20
99.152451
 42
0.081419
  0
VERTEX
  8
0
 10
256.803906
 20
100.476717
 42
0.011497
  0
VERTEX
  8
0
 10
245.745403
 20
101.186232
 42
0.013789
  0
VERTEX
  8
0
 10
234.417382
 20
101.339194
 42
0.039545
  0
VERTEX
  8
0
 10
226.587953
 20
100.607970
 42
-0.006508
  0
VERTEX
  8
0
 10
221.891014
 20
99.854042
 42
-0.051422
  0
VERTEX
  8
0
 10
219.691451
 20
99.758548
 42
-0.098034
  0
VERTEX
  8
0
 10
218.134308
 20
100.164137
 42
-0.054119
  0
VERTEX
  8
0
 10
216.460280
 20
101.209904
 42
-0.135557
  0
VERTEX
  8
0
 10
214.560267
 20
103.789670
 42
-0.091897
  0
VERTEX
  8
0
 10
213.895676
 20
107.399666
 42
-0.081675
  0
VERTEX
  8
0
 10
214.559456
 20
111.405591
 42
-0.075835
  0
VERTEX
  8
0
 10
216.477224
 20
115.102117
 42
0.025183
  0
VERTEX
  8
0
 10
219.987829
 20
120.465092
 42
0.076299
  0
VERTEX
  8
0
 10
221.589100
 20
124.509995
 42
0.185872
  0
VERTEX
  8
0
 10
221.240060
 20
126.935734
 42
0.271473
  0
VERTEX
  8
0
 10
219.424352
 20
128.000000
 42
-0.103562
  0
VERTEX
  8
0
 10
217.048647
 20
128.497398
 42
-0.008042
  0
VERTEX
  8
0
 10
211.108855
 20
131.213306
 42
-0.011918
  0
VERTEX
  8
0
 10
204.834573
 20
134.390776
 42
-0.017679
  0
VERTEX
  8
0
 10
199.511994
 20
137.494836
 42
0.003439
  0
VERTEX
  8
0
 10
197.483119
 20
138.756801
 42
0.003971
  0
VERTEX
  8
0
 10
195.531648
 20
139.930871
 42
0.003562
  0
VERTEX
  8
0
 10
193.864138
 20
140.900188
 42
0.023147
  0
VERTEX
  8
0
 10
193.000000
 20
141.342563
 42
-0.028358
  0
VERTEX
  8
0
 10
190.167962
 20
142.829788
 42
-0.001766
  0
VERTEX
  8
0
 10
182.064943
 20
147.728849
 42
-0.002417
  0
VERTEX
  8
0
 10
174.154093
 20
152.602565
 42
-0.015775
  0
VERTEX
  8
0
 10
170.270978
 20
155.194333
 42
-0.024444
  0
VERTEX
  8
0
 10
168.991786
 20
156.205631
 42
-0.024457
  0
VERTEX
  8
0
 10
167.817649
 20
157.336773
 42
-0.025183
  0
VERTEX
  8
0
 10
166.894449
 20
158.422247
 42
-0.082711
  0
VERTEX
  8
0
 10
166.453590
 20
159.250000
 42
0.247525
  0
VERTEX
  8
0
 10
165.089404
 20
160.549621
 42
0.106308
  0
VERTEX
  8
0
 10
162.503684
 20
160.715462
 42
0.039457
  0
VERTEX
  8
0
 10
157.829461
 20
159.637555
 42
0.005655
  0
VERTEX
  8
0
 10
148.493313
 20
156.576493
 42
-0.008997
  0
VERTEX
  8
0
 10
142.199590
 20
154.559442
 42
-0.003992
  0
VERTEX
  8
0
 10
133.829264
 20
152.114715
 42
-0.003950
  0
VERTEX
  8
0
 10
124.921657
 20
149.665915
 42
-0.005320
  0
VERTEX
  8
0
 10
116.819075
 20
147.599196
 42
0.005041
  0
VERTEX
  8
0
 10
108.535377
 20
145.491207
 42
0.003336
  0
VERTEX
  8
0
 10
99.063225
 20
142.911079
 42
0.003357
  0
VERTEX
  8
0
 10
89.891589
 20
140.280439
 42
0.006513
  0
VERTEX
  8
0
 10
82.606416
 20
138.034334
 42
-0.014660
  0
VERTEX
  8
0
 10
63.404159
 20
132.454929
 42
-0.050391
  0
VERTEX
  8
0
 10
50.591874
 20
130.482363
 42
-0.074533
  0
VERTEX
  8
0
 10
40.532494
 20
131.458435
 42
-0.068243
  0
VERTEX
  8
0
 10
30.868876
 20
135.338317
 42
-0.036323
  0
VERTEX
  8
0
 10
25.664999
 20
138.827751
 42
-0.036185
  0
VERTEX
  8
0
 10
21.013812
 20
143.037634
 42
-0.034453
  0
VERTEX
  8
0
 10
17.699785
 20
147.020912
 42
-0.303494
  0
VERTEX
  8
0
 10
17.621956
 20
149.197329
 42
-0.116628
  0
VERTEX
  8
0
 10
18.145608
 20
149.720580
 42
-0.011025
  0
VERTEX
  8
0
 10
19.721231
 20
150.645370
 42
-0.013633
  0
VERTEX
  8
0
 10
21.678583
 20
151.667987
 42
-0.010323
  0
VERTEX
  8
0
 10
23.878017
 20
152.686121
 42
0.005715
  0
VERTEX
  8
0
 10
26.877128
 20
154.041009
 42
0.001487
  0
VERTEX
  8
0
 10
31.667292
 20
156.288655
 42
0.001512
  0
VERTEX
  8
0
 10
37.110574
 20
158.882705
 42
0.001544
  0
VERTEX
  8
0
 10
42.500000
 20
161.491622
 42
-0.002821
  0
VERTEX
  8
0
 10
54.518335
 20
167.271630
 42
-0.003891
  0
VERTEX
  8
0
 10
65.378952
 20
172.316493
 42
-0.001296
  0
VERTEX
  8
0
 10
74.988481
 20
176.659603
 42
-0.105865
  0
VERTEX
  8
0
 10
76.578148
 20
177.000000
 42
0.092718
  0
VERTEX
  8
0
 10
77.151171
 20
177.107181
 42
0.009701
  0
VERTEX
  8
0
 10
78.420774
 20
177.627895
 42
0.011760
  0
VERTEX
  8
0
 10
79.919126
 20
178.318947
 42
0.009165
  0
VERTEX
  8
0
 10
81.514809
 20
179.137513
 42
-0.013972
  0
VERTEX
  8
0
 10
83.484833
 20
180.124309
 42
-0.005839
  0
VERTEX
  8
0
 10
86.191050
 20
181.348285
 42
-0.005772
  0
VERTEX
  8
0
 10
89.119434
 20
182.591671
 42
-0.007449
  0
VERTEX
  8
0
 10
91.837701
 20
183.661931
 42
0.006167
  0
VERTEX
  8
0
 10
94.552363
 20
184.722736
 42
0.004841
  0
VERTEX
  8
0
 10
97.469662
 20
185.937409
 42
0.004896
  0
VERTEX
  8
0
 10
100.160906
 20
187.119963
 42
0.011986
  0
VERTEX
  8
0
 10
102.110584
 20
188.056416
 42
-0.031352
  0
VERTEX
  8
0
 10
106.982561
 20
190.168488
 42
-0.002285
  0
VERTEX
  8
0
 10
120.767847
 20
195.072895
 42
-0.002501
  0
VERTEX
  8
0
 10
134.509061
 20
199.813944
 42
-0.026893
  0
VERTEX
  8
0
 10
140.177140
 20
201.403757
 42
0.068867
  0
VERTEX
  8
0
 10
141.339330
 20
201.837499
 42
0.049498
  0
VERTEX
  8
0
 10
142.489222
 20
202.613483
 42
0.048222
  0
VERTEX
  8
0
 10
143.496498
 20
203.627880
 42
0.055749
  0
VERTEX
  8
0
 10
144.235887
 20
204.771028
 42
0.044418
  0
VERTEX
  8
0
 10
144.901511
 20
206.467197
 42
0.083920
  0
VERTEX
  8
0
 10
145.073624
 20
207.922290
 42
0.059384
  0
VERTEX
  8
0
 10
144.777367
 20
209.665493
 42
0.013510
  0
VERTEX
  8
0
 10
143.850336
 20
212.520263
 42
-0.016783
  0
VERTEX
  8
0
 10
143.170704
 20
214.660753
 42
-0.014008
  0
VERTEX
  8
0
 10
142.590064
 20
216.974553
 42
-0.014239
  0
VERTEX
  8
0
 10
142.178332
 20
219.122610
 42
-0.036984
  0
VERTEX
  8
0
 10
142.041589
 20
220.690983
 42
0.061088
  0
VERTEX
  8
0
 10
141.728546
 20
222.994716
 42
0.151405
  0
VERTEX
  8
0
 10
140.836976
 20
224.424372
 42
0.077085
  0
VERTEX
  8
0
 10
138.891142
 20
225.641040
 42
0.008456
  0
VERTEX
  8
0
 10
134.000000
 20
227.640218
 42
-0.003103
  0
VERTEX
  8
0
 10
130.977155
 20
228.838155
 42
-0.000701
  0
VERTEX
  8
0
 10
125.856250
 20
230.912764
 42
-0.000726
  0
VERTEX
  8
0
 10
119.954689
 20
233.323273
 42
-0.000705
  0
VERTEX
  8
0
 10
114.000000
 20
235.775390
 42
0.007323
  0
VERTEX
  8
0
 10
107.030535
 20
238.538077
 42
0.003376
  0
VERTEX
  8
0
 10
97.884375
 20
241.939022
 42
0.003343
  0
VERTEX
  8
0
 10
88.216981
 20
245.386644
 42
0.004630
  0
VERTEX
  8
0
 10
79.500000
 20
248.339520
 42
0.000710
  0
VERTEX
  8
0
 10
46.337691
 20
259.179855
 42
0.003473
  0
VERTEX
  8
0
 10
27.536030
 20
265.152264
 42
0.002766
  0
VERTEX
  8
0
 10
14.984924
 20
268.967432
 42
0.089528
  0
VERTEX
  8
0
 10
11.828763
 20
269.319165
 42
-0.028378
  0
VERTEX
  8
0
 10
10.330091
 20
269.302899
 42
-0.200391
  0
VERTEX
  8
0
 10
9.685223
 20
269.607618
 42
-0.202092
  0
VERTEX
  8
0
 10
9.451616
 20
270.278643
 42
-0.028904
  0
VERTEX
  8
0
 10
9.632025
 20
271.755039
 42
-0.118828
  0
VERTEX
  8
0
 10
11.974215
 20
277.057686
 42
-0.073464
  0
VERTEX
  8
0
 10
16.882334
 20
281.832698
 42
-0.052497
  0
VERTEX
  8
0
 10
24.621988
 20
286.265061
 42
-0.022897
  0
VERTEX
  8
0
 10
35.676322
 20
290.545108
 42
-0.021664
  0
VERTEX
  8
0
 10
45.178111
 20
293.280503
 42
-0.037927
  0
VERTEX
  8
0
 10
53.254349
 20
294.593500
 42
-0.038120
  0
VERTEX
  8
0
 10
61.408063
 20
294.668079
 42
-0.022142
  0
VERTEX
  8
0
 10
71.144322
 20
293.579621
 42
-0.014490
  0
VERTEX
  8
0
 10
78.445983
 20
292.216311
 42
-0.017315
  0
VERTEX
  8
0
 10
85.230374
 20
290.497025
 42
-0.011734
  0
VERTEX
  8
0
 10
93.695443
 20
287.820051
 42
-0.002971
  0
VERTEX
  8
0
 10
107.316982
 20
283.067480
 42
0.018248
  0
VERTEX
  8
0
 10
113.151928
 20
281.229569
 42
0.017972
  0
VERTEX
  8
0
 10
119.134974
 20
279.811548
 42
0.011507
  0
VERTEX
  8
0
 10
127.156243
 20
278.403570
 42
0.002776
  0
VERTEX
  8
0
 10
140.500000
 20
276.452376
 42
-0.015491
  0
VERTEX
  8
0
 10
142.550965
 20
276.098999
 42
-0.004914
  0
VERTEX
  8
0
 10
145.585657
 20
275.447645
 42
-0.004900
  0
VERTEX
  8
0
 10
148.956086
 20
274.654730
 42
-0.005433
  0
VERTEX
  8
0
 10
152.195855
 20
273.821538
 42
-0.006943
  0
VERTEX
  8
0
 10
156.957322
 20
272.470520
 42
-0.069809
  0
VERTEX
  8
0
 10
158.830315
 20
271.612093
 42
-0.154494
  0
VERTEX
  8
0
 10
159.744792
 20
270.515509
 42
-0.072406
  0
VERTEX
  8
0
 10
160.195855
 20
268.703480
 42
0.057958
  0
VERTEX
  8
0
 10
160.750580
 20
266.165609
 42
0.340731
  0
VERTEX
  8
0
 10
161.816042
 20
265.462929
 42
0.202905
  0
VERTEX
  8
0
 10
163.308508
 20
266.228824
 42
0.027929
  0
VERTEX
  8
0
 10
165.441585
 20
269.091094
 42
-0.036716
  0
VERTEX
  8
0
 10
169.828760
 20
274.767260
 42
-0.013061
  0
VERTEX
  8
0
 10
176.877953
 20
282.220809
 42
-0.012112
  0
VERTEX
  8
0
 10
184.146085
 20
289.169457
 42
-0.055227
  0
VERTEX
  8
0
 10
188.870279
 20
292.602116
 42
-0.002115
  0
VERTEX
  8
0
 10
196.936983
 20
297.154535
 42
-0.012168
  0
VERTEX
  8
0
 10
201.275482
 20
299.442105
 42
-0.021442
  0
VERTEX
  8
0
 10
204.036919
 20
300.668716
 42
-0.094060
  0
VERTEX
  8
0
 10
205.782363
 20
301.000000
 42
0.171771
  0
VERTEX
  8
0
 10
208.469391
 20
301.951170
 42
0.217617
  0
VERTEX
  8
0
 10
209.630021
 20
304.283187
 42
0.168726
  0
VERTEX
  8
0
 10
208.725597
 20
307.196047
 42
0.115050
  0
VERTEX
  8
0
 10
206.063976
 20
309.466917
 42
-0.119938
  0
VERTEX
  8
0
 10
203.028925
 20
312.107382
 42
-0.059532
  0
VERTEX
  8
0
 10
200.580966
 20
316.618841
 42
-0.060431
  0
VERTEX
  8
0
 10
199.316939
 20
321.418454
 42
-0.158353
  0
VERTEX
  8
0
 10
199.937887
 20
324.883941
 42
-0.080955
  0
VERTEX
  8
0
 10
201.358357
 20
326.741066
 42
-0.082468
  0
VERTEX
  8
0
 10
203.286714
 20
328.037024
 42
-0.059140
  0
VERTEX
  8
0
 10
206.053970
 20
328.920452
 42
-0.021255
  0
VERTEX
  8
0
 10
210.151028
 20
329.532834
 42
0.009832
  0
VERTEX
  8
0
 10
234.235776
 20
332.572154
 42
0.017716
  0
VERTEX
  8
0
 10
253.810052
 20
336.146616
 42
0.021550
  0
VERTEX
  8
0
 10
269.306775
 20
340.254833
 42
0.048118
  0
VERTEX
  8
0
 10
280.532169
 20
344.979655
 42
-0.018864
  0
VERTEX
  8
0
 10
285.468201
 20
347.405790
 42
-0.013394
  0
VERTEX
  8
0
 10
291.168222
 20
349.764333
 42
-0.005530
  0
VERTEX
  8
0
 10
296.699699
 20
351.811614
 42
-0.289943
  0
VERTEX
  8
0
 10
297.759902
 20
351.573431
 42
0.330676
  0
VERTEX
  8
0
 10
298.131219
 20
351.518571
 42
0.014835
  0
VERTEX
  8
0
 10
299.321558
 20
352.202800
 42
0.019953
  0
VERTEX
  8
0
 10
300.762581
 20
353.170290
 42
0.012364
  0
VERTEX
  8
0
 10
302.378401
 20
354.413738
 42
-0.012917
  0
VERTEX
  8
0
 10
304.212195
 20
355.821698
 42
-0.009431
  0
VERTEX
  8
0
 10
306.317405
 20
357.293356
 42
-0.009541
  0
VERTEX
  8
0
 10
308.366889
 20
358.613232
 42
-0.020680
  0
VERTEX
  8
0
 10
310.000000
 20
359.530403
 42
0.007521
  0
VERTEX
  8
0
 10
311.522680
 20
360.333607
 42
0.005343
  0
VERTEX
  8
0
 10
313.206250
 20
361.277819
 42
0.005395
  0
VERTEX
  8
0
 10
314.794172
 20
362.213772
 42
0.011410
  0
VERTEX
  8
0
 10
316.000000
 20
362.980240
 42
0.000436
  0
VERTEX
  8
0
 10
317.265041
 20
363.827075
 42
0.000152
  0
VERTEX
  8
0
 10
319.087500
 20
365.050159
 42
0.000150
  0
VERTEX
  8
0
 10
321.093846
 20
366.398411
 42
0.000175
  0
VERTEX
  8
0
 10
323.000000
 20
367.681138
 42
-0.010758
  0
VERTEX
  8
0
 10
325.183195
 20
369.084097
 42
-0.004927
  0
VERTEX
  8
0
 10
328.087500
 20
370.824228
 42
-0.004877
  0
VERTEX
  8
0
 10
331.182392
 20
372.597026
 42
-0.006710
  0
VERTEX
  8
0
 10
334.000000
 20
374.125394
 42
0.007531
  0
VERTEX
  8
0
 10
338.460640
 20
376.554483
 42
0.007487
  0
VERTEX
  8
0
 10
342.854986
 20
379.121491
 42
0.007190
  0
VERTEX
  8
0
 10
347.334133
 20
381.917505
 42
0.005858
  0
VERTEX
  8
0
 10
352.050774
 20
385.035685
 42
-0.022480
  0
VERTEX
  8
0
 10
353.616713
 20
385.997718
 42
-0.003216
  0
VERTEX
  8
0
 10
356.921718
 20
387.801190
 42
-0.003650
  0
VERTEX
  8
0
 10
360.863099
 20
389.882196
 42
-0.003108
  0
VERTEX
  8
0
 10
365.050774
 20
392.021368
 42
0.004523
  0
VERTEX
  8
0
 10
369.271248
 20
394.192378
 42
0.005002
  0
VERTEX
  8
0
 10
373.311790
 20
396.369149
 42
0.004660
  0
VERTEX
  8
0
 10
376.723644
 20
398.293192
 42
0.025532
  0
VERTEX
  8
0
 10
378.500000
 20
399.441443
 42
-0.015480
  0
VERTEX
  8
0
 10
382.602730
 20
402.211935
 42
-0.021878
  0
VERTEX
  8
0
 10
386.430201
 20
404.399515
 42
-0.024052
  0
VERTEX
  8
0
 10
389.714831
 20
405.895557
 42
-0.083571
  0
VERTEX
  8
0
 10
391.987595
 20
406.386022
 42
0.072805
  0
VERTEX
  8
0
 10
393.168907
 20
406.614609
 42
0.079507
  0
VERTEX
  8
0
 10
394.196383
 20
407.169500
 42
0.071659
  0
VERTEX
  8
0
 10
395.078701
 20
408.072405
 42
0.046073
  0
VERTEX
  8
0
 10
395.831155
 20
409.331358
 42
-0.103418
  0
VERTEX
  8
0
 10
398.032253
 20
412.210377
 42
-0.040280
  0
VERTEX
  8
0
 10
402.096925
 20
415.182968
 42
-0.035751
  0
VERTEX
  8
0
 10
407.391805
 20
417.935855
 42
-0.028129
  0
VERTEX
  8
0
 10
413.463043
 20
420.163991
 42
0.001591
  0
VERTEX
  8
0
 10
417.013992
 20
421.257283
 42
0.000559
  0
VERTEX
  8
0
 10
422.104769
 20
422.848670
 42
0.000555
  0
VERTEX
  8
0
 10
427.698371
 20
424.610933
 42
0.000650
  0
VERTEX
  8
0
 10
433.000000
 20
426.295271
 42
-0.008687
  0
VERTEX
  8
0
 10
438.881593
 20
428.060307
 42
-0.014174
  0
VERTEX
  8
0
 10
443.933382
 20
429.327790
 42
-0.016747
  0
VERTEX
  8
0
 10
448.213926
 20
430.124362
 42
-0.031851
  0
VERTEX
  8
0
 10
451.702423
 20
430.427984
 42
0.010448
  0
VERTEX
  8
0
 10
454.130387
 20
430.534961
 42
0.014615
  0
VERTEX
  8
0
 10
456.292693
 20
430.739160
 42
0.010897
  0
VERTEX
  8
0
 10
458.060426
 20
430.997614
 42
0.155851
  0
VERTEX
  8
0
 10
458.619090
 20
431.285756
 42
-0.191599
  0
VERTEX
  8
0
 10
459.293779
 20
431.576424
 42
-0.000831
  0
VERTEX
  8
0
 10
467.353732
 20
431.790191
 42
-0.003828
  0
VERTEX
  8
0
 10
476.558754
 20
431.948512
 42
-0.002385
  0
VERTEX
  8
0
 10
487.351062
 20
432.000000
 42
-0.002171
  0
VERTEX
  8
0
 10
502.510352
 20
431.934181
 42
-0.010202
  0
VERTEX
  8
0
 10
511.218381
 20
431.680813
 42
-0.017694
  0
VERTEX
  8
0
 10
517.023473
 20
431.186912
 42
-0.037817
  0
SEQEND
  0
POLYLINE
  8
0
 66
1
 70
1
  0
VERTEX
  8
0
 10
301.049332
 20
285.559441
 42
-0.139773
  0
VERTEX
  8
0
 10
300.039473
 20
284.868078
 42
-0.090426
  0
VERTEX
  8
0
 10
298.628136
 20
284.665998
 42
-0.111194
  0
VERTEX
  8
0
 10
297.444593
 20
284.980370
 42
-0.279369
  0
VERTEX
  8
0
 10
297.000000
 20
285.713978
 42
-0.332453
  0
VERTEX
  8
0
 10
297.110936
 20
285.862382
 42
-0.082705
  0
VERTEX
  8
0
 10
297.431218
 20
285.901629
 42
-0.052586
  0
VERTEX
  8
0
 10
297.904933
 20
285.830916
 42
-0.028296
  0
VERTEX
  8
0
 10
298.467975
 20
285.650663
 42
0.066719
  0
VERTEX
  8
0
 10
299.073335
 20
285.506898
 42
0.072258
  0
VERTEX
  8
0
 10
299.678351
 20
285.533742
 42
0.081026
  0
VERTEX
  8
0
 10
300.190464
 20
285.720854
 42
0.126981
  0
VERTEX
  8
0
 10
300.526992
 20
286.043674
 42
-0.039110
  0
VERTEX
  8
0
 10
300.794773
 20
286.409593
 42
-0.042291
  0
VERTEX
  8
0
 10
301.109922
 20
286.719079
 42
-0.046409
  0
VERTEX
  8
0
 10
301.423719
 20
286.933322
 42
-0.127255
  0
VERTEX
  8
0
 10
301.681462
 20
287.000000
 42
-0.422719
  0
VERTEX
  8
0
 10
301.796685
 20
286.881391
 42
-0.096436
  0
VERTEX
  8
0
 10
301.728187
 20
286.576836
 42
-0.047934
  0
VERTEX
  8
0
 10
301.469056
 20
286.112811
 42
-0.021910
  0
SEQEND
  0
POLYLINE
  8
0
 66
1
 70
1
  0
VERTEX
  8
0
 10
289.000000
 20
281.000000
 42
-0.042167
  0
VERTEX
  8
0
 10
288.967655
 20
280.617151
 42
-0.061769
  0
VERTEX
  8
0
 10
288.870461
 20
280.293750
 42
-0.081139
  0
VERTEX
  8
0
 10
288.727648
 20
280.074460
 42
-0.210953
  0
VERTEX
  8
0
 10
288.559017
 20
280.000000
 42
-0.151918
  0
VERTEX
  8
0
 10
288.348290
 20
280.065539
 42
-0.038439
  0
VERTEX
  8
0
 10
288.066025
 20
280.293750
 42
-0.035638
  0
VERTEX
  8
0
 10
287.768994
 20
280.617226
 42
-0.029505
  0
VERTEX
  8
0
 10
287.500000
 20
281.000000
 42
-0.082592
  0
VERTEX
  8
0
 10
287.343488
 20
281.382100
 42
-0.161196
  0
VERTEX
  8
0
 10
287.374600
 20
281.706250
 42
-0.182303
  0
VERTEX
  8
0
 10
287.586039
 20
281.921712
 42
-0.108972
  0
VERTEX
  8
0
 10
287.940983
 20
282.000000
 42
-0.093332
  0
VERTEX
  8
0
 10
288.345238
 20
281.923877
 42
-0.096420
  0
VERTEX
  8
0
 10
288.688914
 20
281.706250
 42
-0.099167
  0
VERTEX
  8
0
 10
288.918938
 20
281.381556
 42
-0.105053
  0
SEQEND
  0
POLYLINE
  8
0
 66
1
 70
1
  0
VERTEX
  8
0
 10
285.729167
 20
280.395833
 42
-0.126455
  0
VERTEX
  8
0
 10
285.402231
 20
280.202593
 42
-0.060344
  0
VERTEX
  8
0
 10
284.916927
 20
280.123424
 42
-0.054150
  0
VERTEX
  8
0
 10
284.359369
 20
280.160852
 42
-0.051402
  0
VERTEX
  8
0
 10
283.812500
 20
280.316886
 42
-0.054073
  0
VERTEX
  8
0
 10
283.395823
 20
280.538436
 42
-0.470617
  0
VERTEX
  8
0
 10
283.378580
 20
280.720685
 42
-0.168741
  0
VERTEX
  8
0
 10
283.670344
 20
280.862007
 42
-0.018894
  0
VERTEX
  8
0
 10
284.416667
 20
280.921053
 42
-0.028489
  0
VERTEX
  8
0
 10
285.112848
 20
280.910055
 42
-0.077125
  0
VERTEX
  8
0
 10
285.592839
 20
280.799335
 42
-0.208169
  0
VERTEX
  8
0
 10
285.775380
 20
280.614691
 42
-0.296942
  0
SEQEND
  0
POLYLINE
  8
0
 66
1
 70
1
  0
VERTEX
  8
0
 10
251.765544
 20
269.619320
 42
0.043668
  0
VERTEX
  8
0
 10
251.152808
 20
269.063486
 42
0.068923
  0
VERTEX
  8
0
 10
250.747377
 20
268.482344
 42
0.096647
  0
VERTEX
  8
0
 10
250.600185
 20
267.968186
 42
0.221395
  0
VERTEX
  8
0
 10
250.735063
 20
267.598270
 42
-0.219368
  0
VERTEX
  8
0
 10
250.804127
 20
267.411108
 42
-0.391663
  0
VERTEX
  8
0
 10
250.692668
 20
267.308143
 42
-0.073310
  0
VERTEX
  8
0
 10
250.268251
 20
267.371050
 42
-0.018227
  0
VERTEX
  8
0
 10
249.602178
 20
267.599164
 42
-0.025531
  0
VERTEX
  8
0
 10
248.576878
 20
268.053912
 42
-0.353573
  0
VERTEX
  8
0
 10
248.421741
 20
268.398914
 42
-0.194361
  0
VERTEX
  8
0
 10
248.717103
 20
268.794734
 42
-0.009888
  0
VERTEX
  8
0
 10
250.132658
 20
269.616582
 42
-0.007863
  0
VERTEX
  8
0
 10
252.154822
 20
270.696530
 42
-0.118834
  0
VERTEX
  8
0
 10
252.923260
 20
270.883144
 42
-0.691899
  0
VERTEX
  8
0
 10
253.014720
 20
270.641582
 42
-0.018185
  0
SEQEND
  0
POLYLINE
  8
0
 66
1
 70
1
  0
VERTEX
  8
0
 10
13.668965
 20
263.445017
 42
-0.002825
  0
VERTEX
  8
0
 10
18.142990
 20
262.132245
 42
-0.000970
  0
VERTEX
  8
0
 10
24.605884
 20
260.182505
 42
-0.000964
  0
VERTEX
  8
0
 10
31.726779
 20
258.004173
 42
-0.001116
  0
VERTEX
  8
0
 10
38.500000
 20
255.901349
 42
0.000236
  0
VERTEX
  8
0
 10
45.573869
 20
253.691538
 42
0.000161
  0
VERTEX
  8
0
 10
53.618750
 20
251.185411
 42
0.000162
  0
VERTEX
  8
0
 10
61.379910
 20
248.773176
 42
0.000327
  0
VERTEX
  8
0
 10
67.500000
 20
246.877572
 42
-0.011187
  0
VERTEX
  8
0
 10
85.793314
 20
240.773053
 42
-0.005575
  0
VERTEX
  8
0
 10
108.689580
 20
232.269522
 42
-0.002132
  0
VERTEX
  8
0
 10
131.588303
 20
223.361089
 42
-0.100645
  0
VERTEX
  8
0
 10
135.743865
 20
220.662794
 42
-0.076127
  0
VERTEX
  8
0
 10
136.249031
 20
219.987586
 42
-0.029794
  0
VERTEX
  8
0
 10
136.736354
 20
218.927229
 42
-0.028647
  0
VERTEX
  8
0
 10
137.135700
 20
217.697276
 42
-0.031697
  0
VERTEX
  8
0
 10
137.375844
 20
216.470420
 42
0.020005
  0
VERTEX
  8
0
 10
137.606847
 20
215.124123
 42
0.011538
  0
VERTEX
  8
0
 10
137.986587
 20
213.524009
 42
0.011518
  0
VERTEX
  8
0
 10
138.442647
 20
211.932740
 42
0.018883
  0
VERTEX
  8
0
 10
138.909958
 20
210.611312
 42
-0.009814
  0
VERTEX
  8
0
 10
139.329209
 20
209.490846
 42
-0.015732
  0
VERTEX
  8
0
 10
139.637663
 20
208.517736
 42
-0.009617
  0
VERTEX
  8
0
 10
139.847609
 20
207.716494
 42
-0.317115
  0
VERTEX
  8
0
 10
139.777978
 20
207.540702
 42
-0.055989
  0
VERTEX
  8
0
 10
138.718903
 20
207.005879
 42
-0.000742
  0
VERTEX
  8
0
 10
131.804891
 20
204.448419
 42
-0.002397
  0
VERTEX
  8
0
 10
124.639285
 20
201.848917
 42
-0.003047
  0
VERTEX
  8
0
 10
118.000000
 20
199.521842
 42
0.012207
  0
VERTEX
  8
0
 10
107.043558
 20
195.454755
 42
0.002793
  0
VERTEX
  8
0
 10
88.733717
 20
188.025838
 42
0.002941
  0
VERTEX
  8
0
 10
70.322054
 20
180.308515
 42
0.009565
  0
VERTEX
  8
0
 10
58.249887
 20
174.889589
 42
-0.001770
  0
VERTEX
  8
0
 10
43.810029
 20
168.135487
 42
-0.003239
  0
VERTEX
  8
0
 10
31.980811
 20
162.746264
 42
-0.001067
  0
VERTEX
  8
0
 10
22.033732
 20
158.317558
 42
-0.104565
  0
VERTEX
  8
0
 10
20.531859
 20
158.000000
 42
0.111834
  0
VERTEX
  8
0
 10
19.939555
 20
157.865843
 42
0.034427
  0
VERTEX
  8
0
 10
19.137223
 20
157.412500
 42
0.032519
  0
VERTEX
  8
0
 10
18.282745
 20
156.765408
 42
0.030525
  0
VERTEX
  8
0
 10
17.500000
 20
156.000000
 42
-0.032991
  0
VERTEX
  8
0
 10
16.709551
 20
155.234638
 42
-0.033910
  0
VERTEX
  8
0
 10
15.832204
 20
154.587500
 42
-0.036019
  0
VERTEX
  8
0
 10
14.997854
 20
154.136318
 42
-0.106326
  0
VERTEX
  8
0
 10
14.364064
 20
154.000000
 42
0.275723
  0
VERTEX
  8
0
 10
12.966119
 20
153.165680
 42
0.127678
  0
VERTEX
  8
0
 10
12.442998
 20
151.034107
 42
0.072848
  0
VERTEX
  8
0
 10
12.964092
 20
147.779512
 42
0.036996
  0
VERTEX
  8
0
 10
14.498399
 20
143.917505
 42
0.059058
  0
VERTEX
  8
0
 10
17.398270
 20
139.394286
 42
0.045786
  0
VERTEX
  8
0
 10
21.513889
 20
135.230535
 42
0.039699
  0
VERTEX
  8
0
 10
26.914390
 20
131.372230
 42
0.025832
  0
VERTEX
  8
0
 10
33.684761
 20
127.766744
 42
0.017133
  0
VERTEX
  8
0
 10
37.835989
 20
125.994862
 42
0.055994
  0
VERTEX
  8
0
 10
40.719453
 20
125.236164
 42
0.041755
  0
VERTEX
  8
0
 10
44.110501
 20
125.025798
 42
0.006527
  0
VERTEX
  8
0
 10
50.817159
 20
125.257673
 42
0.017000
  0
VERTEX
  8
0
 10
58.787169
 20
125.909569
 42
0.022500
  0
VERTEX
  8
0
 10
65.973985
 20
127.073814
 42
0.022103
  0
VERTEX
  8
0
 10
73.126862
 20
128.898673
 42
0.015535
  0
VERTEX
  8
0
 10
81.000000
 20
131.552048
 42
-0.014279
  0
VERTEX
  8
0
 10
87.997990
 20
133.930079
 42
-0.005457
  0
VERTEX
  8
0
 10
97.864161
 20
136.853910
 42
-0.005086
  0
VERTEX
  8
0
 10
109.325021
 20
139.989036
 42
-0.004307
  0
VERTEX
  8
0
 10
121.500000
 20
143.074906
 42
0.007298
  0
VERTEX
  8
0
 10
127.082841
 20
144.525525
 42
0.003768
  0
VERTEX
  8
0
 10
134.024349
 20
146.494139
 42
0.003744
  0
VERTEX
  8
0
 10
141.133319
 20
148.626138
 42
0.005663
  0
VERTEX
  8
0
 10
147.285017
 20
150.597923
 42
0.000000
  0
VERTEX
  8
0
 10
161.070034
 20
155.189189
 42
0.000000
  0
VERTEX
  8
0
 10
166.285017
 20
151.277389
 42
0.014329
  0
VERTEX
  8
0
 10
168.748799
 20
149.537322
 42
0.007717
  0
VERTEX
  8
0
 10
171.877474
 20
147.528297
 42
0.007679
  0
VERTEX
  8
0
 10
175.131745
 20
145.577444
 42
0.011959
  0
VERTEX
  8
0
 10
178.000000
 20
144.007687
 42
-0.004087
  0
VERTEX
  8
0
 10
180.671874
 20
142.599612
 42
-0.004066
  0
VERTEX
  8
0
 10
183.325000
 20
141.145662
 42
-0.003986
  0
VERTEX
  8
0
 10
185.623289
 20
139.837614
 42
-0.015872
  0
VERTEX
  8
0
 10
187.000000
 20
138.979979
 42
0.011889
  0
VERTEX
  8
0
 10
191.810505
 20
135.929782
 42
0.007393
  0
VERTEX
  8
0
 10
197.587650
 20
132.571712
 42
0.007350
  0
VERTEX
  8
0
 10
203.538071
 20
129.343774
 42
0.010666
  0
VERTEX
  8
0
 10
208.889772
 20
126.685523
 42
0.000000
  0
VERTEX
  8
0
 10
216.113016
 20
123.287763
 42
0.000000
  0
VERTEX
  8
0
 10
213.701376
 20
120.393881
 42
0.050289
  0
VERTEX
  8
0
 10
211.779026
 20
117.549090
 42
0.037819
  0
VERTEX
  8
0
 10
210.244463
 20
114.095778
 42
0.034608
  0
VERTEX
  8
0
 10
209.131262
 20
110.125666
 42
0.027687
  0
VERTEX
  8
0
 10
208.472426
 20
105.731527
 42
0.028369
  0
VERTEX
  8
0
 10
208.376122
 20
103.111777
 42
0.095436
  0
VERTEX
  8
0
 10
208.732591
 20
101.441578
 42
0.081868
  0
VERTEX
  8
0
 10
209.715476
 20
99.887495
 42
0.017499
  0
VERTEX
  8
0
 10
211.928707
 20
97.569616
 42
0.016375
  0
VERTEX
  8
0
 10
214.448532
 20
95.265326
 42
0.097417
  0
VERTEX
  8
0
 10
215.993932
 20
94.393204
 42
0.097484
  0
VERTEX
  8
0
 10
217.754049
 20
94.171666
 42
0.016408
  0
VERTEX
  8
0
 10
221.148043
 20
94.518922
 42
-0.018373
  0
VERTEX
  8
0
 10
224.064440
 20
94.805743
 42
-0.004474
  0
VERTEX
  8
0
 10
228.893488
 20
95.058748
 42
-0.004580
  0
VERTEX
  8
0
 10
234.438998
 20
95.248685
 42
-0.004548
  0
VERTEX
  8
0
 10
240.000000
 20
95.337559
 42
-0.026424
  0
VERTEX
  8
0
 10
252.619144
 20
94.757274
 42
-0.033232
  0
VERTEX
  8
0
 10
264.158648
 20
92.833087
 42
-0.026032
  0
VERTEX
  8
0
 10
277.344141
 20
88.988387
 42
-0.009386
  0
VERTEX
  8
0
 10
295.666570
 20
82.205690
 42
-0.002596
  0
VERTEX
  8
0
 10
299.876695
 20
80.531406
 42
-0.002505
  0
VERTEX
  8
0
 10
304.119655
 20
78.793732
 42
-0.002475
  0
VERTEX
  8
0
 10
307.841234
 20
77.226125
 42
-0.009154
  0
VERTEX
  8
0
 10
310.166570
 20
76.182326
 42
0.001964
  0
VERTEX
  8
0
 10
312.250214
 20
75.210784
 42
0.000887
  0
VERTEX
  8
0
 10
314.989555
 20
73.952476
 42
0.000878
  0
VERTEX
  8
0
 10
317.886021
 20
72.634354
 42
0.001200
  0
VERTEX
  8
0
 10
320.500000
 20
71.457874
 42
-0.008947
  0
VERTEX
  8
0
 10
330.106605
 20
66.953948
 42
-0.003782
  0
VERTEX
  8
0
 10
342.845044
 20
60.581288
 42
-0.001947
  0
VERTEX
  8
0
 10
355.490343
 20
54.073027
 42
-0.046860
  0
VERTEX
  8
0
 10
358.831407
 20
51.917975
 42
0.020460
  0
VERTEX
  8
0
 10
359.847705
 20
51.183800
 42
0.022833
  0
VERTEX
  8
0
 10
360.884958
 20
50.563405
 42
0.022929
  0
VERTEX
  8
0
 10
361.808674
 20
50.120018
 42
0.100757
  0
VERTEX
  8
0
 10
362.398207
 20
50.000000
 42
-0.116044
  0
VERTEX
  8
0
 10
363.080307
 20
49.839531
 42
-0.010125
  0
VERTEX
  8
0
 10
364.667793
 20
49.008300
 42
-0.012868
  0
VERTEX
  8
0
 10
366.537410
 20
47.917012
 42
-0.009650
  0
VERTEX
  8
0
 10
368.539771
 20
46.623999
 42
0.021863
  0
VERTEX
  8
0
 10
373.491862
 20
43.594944
 42
0.005572
  0
VERTEX
  8
0
 10
381.777700
 20
39.131696
 42
0.005968
  0
VERTEX
  8
0
 10
390.644695
 20
34.616218
 42
0.010524
  0
VERTEX
  8
0
 10
398.086472
 20
31.130636
 42
-0.015015
  0
VERTEX
  8
0
 10
399.930264
 20
30.246764
 42
-0.016009
  0
VERTEX
  8
0
 10
401.677920
 20
29.271358
 42
-0.015770
  0
VERTEX
  8
0
 10
403.122480
 20
28.340109
 42
-0.068588
  0
VERTEX
  8
0
 10
403.872101
 20
27.654109
 42
0.085178
  0
VERTEX
  8
0
 10
404.574481
 20
27.052678
 42
0.029850
  0
VERTEX
  8
0
 10
405.758142
 20
26.438708
 42
0.028619
  0
VERTEX
  8
0
 10
407.166543
 20
25.906019
 42
0.029740
  0
VERTEX
  8
0
 10
408.608745
 20
25.545577
 42
-0.025735
  0
VERTEX
  8
0
 10
412.584368
 20
24.585714
 42
-0.001643
  0
VERTEX
  8
0
 10
424.048632
 20
21.144058
 42
-0.002405
  0
VERTEX
  8
0
 10
437.682430
 20
16.930490
 42
-0.001787
  0
VERTEX
  8
0
 10
452.698600
 20
12.151415
 42
0.008359
  0
VERTEX
  8
0
 10
458.577771
 20
10.365044
 42
0.008035
  0
VERTEX
  8
0
 10
464.591122
 20
8.751213
 42
0.006050
  0
VERTEX
  8
0
 10
471.994493
 20
6.986284
 42
0.002217
  0
VERTEX
  8
0
 10
482.500000
 20
4.664687
 42
-0.897701
  0
VERTEX
  8
0
 10
482.481149
 20
4.486411
 42
-0.000015
  0
VERTEX
  8
0
 10
413.196449
 20
4.325028
 42
-0.000285
  0
VERTEX
  8
0
 10
335.938792
 20
4.191544
 42
-0.000169
  0
VERTEX
  8
0
 10
243.764507
 20
4.116001
 42
0.000000
  0
VERTEX
  8
0
 10
3.029015
 20
4.000000
 42
0.000000
  0
VERTEX
  8
0
 10
3.007347
 20
135.563442
 42
-0.000545
  0
VERTEX
  8
0
 10
3.057757
 20
190.013493
 42
-0.001222
  0
VERTEX
  8
0
 10
3.242201
 20
231.364220
 42
-0.000085
  0
VERTEX
  8
0
 10
3.489493
 20
266.321054
 42
-0.584953
  0
VERTEX
  8
0
 10
3.911805
 20
266.554507
 42
0.058885
  0
VERTEX
  8
0
 10
4.594832
 20
266.236333
 42
0.002448
  0
VERTEX
  8
0
 10
7.159998
 20
265.404989
 42
0.004212
  0
VERTEX
  8
0
 10
10.218393
 20
264.458621
 42
0.002976
  0
SEQEND
  0
POLYLINE
  8
0
 66
1
 70
1
  0
VERTEX
  8
0
 10
256.666667
 20
226.543989
 42
-0.059057
  0
VERTEX
  8
0
 10
256.605052
 20
226.024148
 42
-0.126631
  0
VERTEX
  8
0
 10
256.417083
 20
225.669932
 42
-0.191218
  0
VERTEX
  8
0
 10
256.139071
 20
225.534562
 42
-0.158515
  0
VERTEX
  8
0
 10
255.817021
 20
225.613087
 42
-0.108766
  0
VERTEX
  8
0
 10
255.536973
 20
225.884780
 42
-0.099739
  0
VERTEX
  8
0
 10
255.385962
 20
226.257398
 42
-0.095385
  0
VERTEX
  8
0
 10
255.387618
 20
226.673795
 42
-0.090093
  0
VERTEX
  8
0
 10
255.542705
 20
227.069098
 42
-0.026790
  0
VERTEX
  8
0
 10
256.086603
 20
227.852054
 42
-0.350126
  0
VERTEX
  8
0
 10
256.407920
 20
227.929499
 42
-0.269722
  0
VERTEX
  8
0
 10
256.623697
 20
227.618676
 42
-0.019984
  0
SEQEND
  0
POLYLINE
  8
0
 66
1
 70
1
  0
VERTEX
  8
0
 10
257.000000
 20
183.559017
 42
-0.151918
  0
VERTEX
  8
0
 10
256.934461
 20
183.348290
 42
-0.038439
  0
VERTEX
  8
0
 10
256.706250
 20
183.066025
 42
-0.035638
  0
VERTEX
  8
0
 10
256.382774
 20
182.768994
 42
-0.029505
  0
VERTEX
  8
0
 10
256.000000
 20
182.500000
 42
-0.082592
  0
VERTEX
  8
0
 10
255.617900
 20
182.343488
 42
-0.161196
  0
VERTEX
  8
0
 10
255.293750
 20
182.374600
 42
-0.182303
  0
VERTEX
  8
0
 10
255.078288
 20
182.586039
 42
-0.108972
  0
VERTEX
  8
0
 10
255.000000
 20
182.940983
 42
-0.093332
  0
VERTEX
  8
0
 10
255.076123
 20
183.345238
 42
-0.096420
  0
VERTEX
  8
0
 10
255.293750
 20
183.688914
 42
-0.099167
  0
VERTEX
  8
0
 10
255.618444
 20
183.918938
 42
-0.105053
  0
VERTEX
  8
0
 10
256.000000
 20
184.000000
 42
-0.042167
  0
VERTEX
  8
0
 10
256.382849
 20
183.967655
 42
-0.061769
  0
VERTEX
  8
0
 10
256.706250
 20
183.870461
 42
-0.081139
  0
VERTEX
  8
0
 10
256.925540
 20
183.727648
 42
-0.210953
  0
SEQEND
  0
POLYLINE
  8
0
 66
1
 70
1
  0
VERTEX
  8
0
 10
181.127555
 20
145.250000
 42
-0.001576
  0
VERTEX
  8
0
 10
182.007640
 20
144.120493
 42
-0.377591
  0
VERTEX
  8
0
 10
182.000000
 20
144.000000
 42
-0.377591
  0
VERTEX
  8
0
 10
181.879507
 20
143.992360
 42
-0.001576
  0
VERTEX
  8
0
 10
180.750000
 20
144.872445
 42
-0.017685
  0
VERTEX
  8
0
 10
179.693241
 20
145.763320
 42
-0.065617
  0
VERTEX
  8
0
 10
179.130484
 20
146.426111
 42
-0.241985
  0
VERTEX
  8
0
 10
179.093050
 20
146.806605
 42
-0.307699
  0
VERTEX
  8
0
 10
179.377555
 20
147.000000
 42
-0.184603
  0
VERTEX
  8
0
 10
179.589861
 20
146.918850
 42
-0.013803
  0
VERTEX
  8
0
 10
180.047359
 20
146.485938
 42
-0.017649
  0
VERTEX
  8
0
 10
180.574319
 20
145.920402
 42
-0.012436
  0
SEQEND
  0
POLYLINE
  8
0
 66
1
 70
1
  0
VERTEX
  8
0
 10
572.000000
 20
10.000000
 42
0.000000
  0
VERTEX
  8
0
 10
572.000000
 20
4.000000
 42
0.000000
  0
VERTEX
  8
0
 10
555.250000
 20
4.039142
 42
-0.001431
  0
VERTEX
  8
0
 10
544.832446
 20
4.093297
 42
-0.026131
  0
VERTEX
  8
0
 10
541.522236
 20
4.293177
 42
-0.490990
  0
VERTEX
  8
0
 10
541.197649
 20
4.828087
 42
-0.201112
  0
VERTEX
  8
0
 10
541.889224
 20
5.549407
 42
-0.014115
  0
VERTEX
  8
0
 10
543.378813
 20
6.146597
 42
-0.010499
  0
VERTEX
  8
0
 10
545.053926
 20
6.724230
 42
-0.010631
  0
VERTEX
  8
0
 10
546.658104
 20
7.202597
 42
-0.023544
  0
VERTEX
  8
0
 10
547.903342
 20
7.482971
 42
0.032198
  0
VERTEX
  8
0
 10
551.171396
 20
8.278420
 42
0.009104
  0
VERTEX
  8
0
 10
556.143961
 20
9.933673
 42
0.009492
  0
VERTEX
  8
0
 10
561.433008
 20
11.915620
 42
0.013904
  0
VERTEX
  8
0
 10
566.000000
 20
13.875223
 42
-0.005510
  0
VERTEX
  8
0
 10
567.778356
 20
14.673889
 42
-0.007530
  0
VERTEX
  8
0
 10
569.398438
 20
15.351277
 42
-0.005171
  0
VERTEX
  8
0
 10
570.765285
 20
15.882413
 42
-0.082942
  0
VERTEX
  8
0
 10
571.250000
 20
15.978038
 42
-0.370208
  0
VERTEX
  8
0
 10
571.546811
 20
15.738091
 42
-0.014254
  0
VERTEX
  8
0
 10
571.779688
 20
14.231049
 42
-0.019467
  0
VERTEX
  8
0
 10
571.946027
 20
12.298869
 42
-0.011737
  0
SEQEND
  0
POLYLINE
  8
0
 66
1
 70
1
  0
VERTEX
  8
0
 10
244.000000
 20
268.000000
 42
0.099038
  0
VERTEX
  8
0
 10
244.076342
 20
267.618362
 42
0.097945
  0
VERTEX
  8
0
 10
244.293750
 20
267.293750
 42
0.097945
  0
VERTEX
  8
0
 10
244.618362
 20
267.076342
 42
0.099038
  0
VERTEX
  8
0
 10
245.000000
 20
267.000000
 42
0.099038
  0
VERTEX
  8
0
 10
245.381638
 20
267.076342
 42
0.097945
  0
VERTEX
  8
0
 10
245.706250
 20
267.293750
 42
0.097945
  0
VERTEX
  8
0
 10
245.923658
 20
267.618362
 42
0.099038
  0
VERTEX
  8
0
 10
246.000000
 20
268.000000
 42
0.099038
  0
VERTEX
  8
0
 10
245.923658
 20
268.381638
 42
0.097945
  0
VERTEX
  8
0
 10
245.706250
 20
268.706250
 42
0.097945
  0
VERTEX
  8
0
 10
245.381638
 20
268.923658
 42
0.099038
  0
VERTEX
  8
0
 10
245.000000
 20
269.000000
 42
0.099038
  0
VERTEX
  8
0
 10
244.618362
 20
268.923658
 42
0.097945
  0
VERTEX
  8
0
 10
244.293750
 20
268.706250
 42
0.097945
  0
VERTEX
  8
0
 10
244.076342
 20
268.381638
 42
0.099038
  0
SEQEND
  0
ENDSEC
  0
EOF
