<?xml version="1.0" standalone="no"?>
<!DOCTYPE svg PUBLIC "-//W3C//DTD SVG 20010904//EN"
 "http://www.w3.org/TR/2001/REC-SVG-20010904/DTD/svg10.dtd">
<svg version="1.0" xmlns="http://www.w3.org/2000/svg"
 width="577.000000pt" height="436.000000pt" viewBox="0 0 577.000000 436.000000"
 preserveAspectRatio="xMidYMid meet">
<metadata>
Created by potrace 1.13, written by Peter Selinger 2001-2015
</metadata>
<g transform="translate(0.000000,436.000000) scale(0.100000,-0.100000)"
fill="#000000" stroke="none">
<path d="M2217 4353 l-2207 -3 0 -2170 0 -2170 2870 0 2870 0 0 2168 0 2169
-352 6 c-194 4 -492 6 -663 5 -170 -2 -1303 -4 -2518 -5z m2047 -47 c-17 -8
-54 -19 -82 -25 -73 -15 -165 -56 -220 -96 -26 -20 -78 -56 -117 -81 -38 -26
-73 -51 -76 -57 -4 -5 -12 -6 -19 -2 -8 5 -11 4 -7 -2 3 -5 -40 -31 -96 -58
-56 -27 -127 -65 -157 -86 -30 -20 -98 -60 -150 -89 -52 -29 -131 -76 -175
-105 -169 -110 -519 -265 -651 -288 -16 -3 -53 -10 -83 -16 -29 -6 -56 -11
-58 -11 -2 0 -2 -3 0 -7 3 -5 -39 -9 -92 -11 -53 -2 -139 -9 -191 -17 -85 -13
-98 -17 -122 -45 -42 -46 -39 -116 7 -192 l34 -58 -105 -62 c-76 -45 -126 -85
-185 -145 -89 -91 -87 -90 -182 -58 -23 7 -60 16 -82 19 -243 32 -359 58 -437
97 -65 33 -209 69 -333 84 -150 17 -225 10 -350 -35 -11 -4 -64 -29 -119 -56
-101 -50 -133 -79 -168 -153 -15 -34 -16 6 -17 767 l-1 802 2133 0 c1792 -1
2127 -3 2101 -14z m950 -3 c89 -25 159 -63 174 -96 13 -26 12 -31 -10 -54 -36
-39 -114 -72 -273 -117 -151 -43 -607 -270 -795 -396 -54 -37 -216 -127 -400
-223 -174 -91 -380 -220 -500 -314 -31 -23 -129 -80 -218 -126 -89 -46 -159
-87 -155 -91 4 -4 0 -4 -9 -1 -9 4 -30 -1 -47 -9 -17 -9 -33 -16 -36 -16 -20
0 -122 -46 -130 -59 -15 -24 -14 -51 1 -51 8 0 14 5 14 12 0 6 3 9 6 6 10 -11
236 79 254 101 3 3 12 7 20 9 48 11 297 151 395 223 75 55 320 207 345 214 14
4 36 15 50 25 14 9 97 56 185 105 88 49 187 105 220 124 33 20 74 43 90 51 17
8 39 23 50 33 22 20 411 214 497 247 29 12 63 28 76 36 13 9 82 33 154 55 169
50 210 71 258 134 41 53 49 78 29 91 -6 3 -17 21 -25 39 -7 19 -27 39 -46 48
-32 16 -26 17 150 17 l182 0 1 -27 c5 -203 4 -2964 -2 -2980 -5 -12 -5 -25 0
-27 6 -4 8 -969 2 -1020 -1 -5 -10 3 -22 18 -23 29 -129 91 -174 102 -125 28
-230 66 -398 143 -38 17 -76 31 -85 31 -10 0 -54 18 -100 40 -45 22 -84 40
-87 40 -5 0 -284 130 -451 210 -66 32 -150 79 -187 104 -39 27 -77 45 -90 44
-13 -1 -53 18 -93 43 -38 25 -94 61 -124 79 -30 19 -57 37 -60 40 -21 22 -167
95 -293 146 -62 25 -130 55 -152 66 -71 37 -164 68 -181 61 -11 -4 -15 -2 -11
4 8 13 -195 90 -323 123 -25 6 -53 14 -64 17 -13 4 -17 1 -12 -8 4 -8 2 -7 -6
2 -16 19 -68 34 -68 19 0 -5 -5 -10 -11 -10 -5 0 -8 4 -4 10 9 14 -176 57
-195 45 -4 -2 -7 2 -7 10 0 8 6 16 12 19 19 7 28 57 13 68 -10 8 -10 9 2 5 22
-6 41 56 45 151 1 46 6 86 9 89 12 12 6 44 -6 37 -10 -6 -10 -5 -1 7 7 8 8 20
4 28 -5 7 -6 34 -4 59 5 62 -3 92 -25 93 -16 1 -16 2 1 6 21 6 21 -4 -4 139
-12 69 -27 126 -36 136 -9 10 -13 21 -10 25 4 3 7 0 7 -7 0 -7 2 -11 5 -8 3 2
-2 29 -11 59 -9 30 -19 48 -21 42 -3 -7 -9 -13 -14 -13 -6 0 -5 8 1 20 6 11 8
25 5 30 -4 6 -3 10 2 9 4 -2 19 2 33 8 14 6 41 16 60 22 152 53 180 66 175 79
-4 12 -2 12 9 3 11 -9 15 -8 19 3 10 26 -27 24 -56 -3 l-28 -26 9 25 c5 14 13
25 18 26 5 0 17 4 27 7 9 4 24 9 33 12 9 3 15 8 12 10 -3 3 -39 -7 -81 -22
-52 -18 -77 -32 -77 -42 0 -14 -2 -14 -9 -2 -8 12 -12 12 -25 2 -8 -7 -20 -10
-26 -6 -5 3 -10 1 -10 -5 0 -6 -4 -9 -9 -6 -14 9 -101 -27 -101 -41 0 -8 -6
-16 -14 -19 -8 -3 -12 -13 -9 -22 18 -57 27 -72 45 -72 10 0 16 -5 13 -10 -4
-6 -11 -7 -17 -4 -8 5 -9 1 -5 -10 4 -10 7 -24 7 -32 0 -9 3 -13 8 -11 4 3 8
-9 9 -26 4 -59 15 -107 24 -107 5 0 7 -11 5 -24 -2 -13 0 -41 6 -63 6 -21 10
-50 9 -65 0 -16 5 -28 10 -28 6 0 9 -6 6 -13 -3 -8 -1 -20 3 -28 5 -7 5 -18
-1 -25 -6 -8 -4 -14 6 -18 11 -4 13 -11 8 -23 -8 -17 -8 -28 -4 -76 0 -10 6
-15 11 -12 6 4 1 -10 -10 -30 -23 -40 -27 -80 -7 -69 6 4 4 -2 -5 -12 -10 -11
-23 -45 -29 -75 -6 -30 -12 -58 -13 -64 -6 -25 -38 -75 -57 -88 -12 -9 -19
-23 -17 -34 3 -15 17 -19 88 -25 47 -3 100 -11 118 -16 24 -8 32 -8 32 1 0 8
3 9 8 1 4 -6 45 -21 92 -33 47 -13 121 -34 165 -48 44 -13 88 -25 98 -26 9 -1
17 -5 17 -9 0 -4 16 -10 35 -14 19 -3 37 -10 40 -14 3 -5 35 -18 71 -30 37
-13 76 -32 87 -43 18 -18 97 -47 135 -50 6 0 12 -4 12 -9 0 -4 3 -7 8 -7 4 1
10 0 15 -1 15 -5 27 -8 43 -9 8 0 13 -5 10 -9 -2 -4 5 -9 17 -9 29 -3 97 -34
97 -45 0 -4 3 -7 8 -6 13 4 67 -20 87 -39 11 -11 48 -34 83 -51 35 -18 69 -37
75 -42 45 -39 283 -180 303 -180 6 0 90 -39 185 -88 193 -97 235 -117 489
-233 96 -44 187 -87 202 -95 14 -8 33 -14 42 -14 8 0 50 -15 93 -34 69 -30
135 -54 322 -114 33 -10 73 -34 102 -60 74 -66 66 -72 -206 -158 -84 -27 -103
-29 -291 -32 -160 -3 -220 -1 -290 13 -122 23 -291 70 -399 110 -49 18 -133
45 -185 60 -195 55 -348 123 -574 259 -190 114 -517 277 -664 332 -53 19 -120
47 -149 60 -29 13 -92 33 -140 44 -48 12 -99 26 -113 32 -46 20 -269 29 -354
14 -72 -12 -78 -12 -101 6 -35 27 -35 92 0 139 57 79 69 129 29 129 -21 0
-134 54 -199 95 -27 17 -57 35 -65 38 -24 11 -192 114 -227 139 -18 13 -35 31
-38 41 -9 26 -37 21 -180 -27 -72 -25 -214 -65 -317 -90 -103 -25 -257 -68
-342 -96 -290 -93 -391 -98 -517 -27 -73 42 -146 118 -133 139 4 6 32 21 63
35 31 13 114 53 186 88 168 82 329 155 341 155 5 0 27 10 49 21 22 12 69 32
103 46 35 13 81 33 103 44 40 20 331 122 381 133 15 4 32 18 40 34 12 24 12
34 -3 77 -10 28 -18 64 -19 82 0 36 -4 40 -80 69 -30 12 -120 49 -200 82 -80
33 -235 89 -345 125 -508 167 -652 212 -677 210 -23 -1 -26 1 -22 25 14 74 93
131 261 187 136 46 215 53 354 31 101 -16 155 -32 362 -105 77 -28 128 -38
332 -66 22 -4 75 -15 117 -27 73 -19 77 -22 80 -51 4 -44 21 -43 52 4 44 66
184 206 235 235 123 70 151 84 169 84 50 0 52 59 3 85 -45 23 -82 116 -62 154
16 29 40 40 103 46 349 37 580 88 703 155 61 33 166 73 173 66 2 -3 23 10 46
28 22 18 57 42 76 51 19 10 46 26 60 35 14 9 45 30 70 47 25 16 74 45 110 64
60 32 116 66 181 109 14 10 72 41 130 70 57 29 118 63 134 74 57 41 110 69
135 70 17 1 29 10 38 29 18 38 91 82 177 109 38 11 126 39 195 61 84 27 145
40 187 41 34 1 65 5 69 9 4 4 133 7 288 7 232 0 290 -3 340 -17z m-2204 -1447
c-10 -13 -40 -12 -40 1 0 3 7 3 15 0 8 -4 17 -2 20 3 4 6 9 10 12 10 3 0 0 -6
-7 -14z m-120 -46 c0 -5 -2 -10 -4 -10 -3 0 -8 5 -11 10 -3 6 -1 10 4 10 6 0
11 -4 11 -10z m-33 -6 c-3 -3 -12 -4 -19 -1 -8 3 -5 6 6 6 11 1 17 -2 13 -5z
m-339 -108 c-10 -7 -15 -16 -11 -20 4 -4 -1 -4 -11 0 -17 6 -16 8 5 20 31 17
39 17 17 0z m-2381 -62 c48 -14 160 -47 248 -75 88 -28 219 -68 290 -90 216
-67 655 -236 682 -262 7 -7 15 -26 17 -42 2 -17 9 -43 15 -59 6 -16 10 -30 9
-31 -8 -4 -133 -51 -218 -80 -111 -38 -471 -186 -598 -246 -208 -99 -365 -169
-377 -169 -6 0 -20 -9 -30 -20 -10 -11 -24 -20 -31 -20 -27 0 -26 -45 1 -101
30 -63 93 -115 192 -161 62 -29 68 -30 171 -25 112 5 192 22 302 63 77 28 238
74 405 115 66 16 182 50 258 75 l138 46 52 -39 c29 -22 81 -54 117 -73 36 -18
76 -41 90 -50 58 -39 151 -91 219 -123 l72 -34 -24 -29 c-28 -34 -47 -85 -52
-147 -4 -40 -1 -47 34 -81 38 -37 40 -38 92 -31 30 4 115 8 189 8 175 2 283
-24 557 -131 56 -22 121 -49 145 -60 23 -11 70 -33 103 -47 110 -49 359 -176
383 -196 14 -10 30 -19 36 -19 6 0 34 -15 61 -34 50 -33 206 -115 296 -155 25
-11 51 -27 58 -34 6 -8 28 -18 47 -22 33 -6 232 -66 441 -133 77 -25 140 -41
298 -75 11 -3 -1063 -5 -2387 -6 l-2408 -1 0 1316 c0 804 3 1313 9 1310 5 -4
49 -18 98 -32z m2430 -369 c0 -8 -4 -12 -9 -9 -5 3 -6 10 -3 15 9 13 12 11 12
-6z m3 -429 c0 -3 -4 -8 -10 -11 -5 -3 -10 -1 -10 4 0 6 5 11 10 11 6 0 10 -2
10 -4z m-759 -383 c13 -16 12 -17 -3 -4 -17 13 -22 21 -14 21 2 0 10 -8 17
-17z m3909 -1353 l0 -60 -167 0 c-157 1 -166 2 -134 15 19 9 46 17 60 20 35 6
125 38 181 64 25 11 48 21 53 21 4 0 7 -27 7 -60z"/>
<path d="M2440 2680 c0 -5 5 -10 10 -10 6 0 10 5 10 10 0 6 -4 10 -10 10 -5 0
-10 -4 -10 -10z"/>
</g>
</svg>
